<svg viewBox="0 0 330 200" xmlns="http://www.w3.org/2000/svg"><g><g><g><g><g><line x1="50" y1="177" x2="45" y2="177" style="visibility: inherit;" fill="rgb(0, 0, 0)" stroke="rgb(204, 204, 204)" stroke-width="1px"></line><line x1="50" y1="151.7142857142857" x2="45" y2="151.7142857142857" style="visibility: inherit;" fill="rgb(0, 0, 0)" stroke="rgb(204, 204, 204)" stroke-width="1px"></line><line x1="50" y1="126.42857142857142" x2="45" y2="126.42857142857142" style="visibility: inherit;" fill="rgb(0, 0, 0)" stroke="rgb(204, 204, 204)" stroke-width="1px"></line><line x1="50" y1="101.14285714285714" x2="45" y2="101.14285714285714" style="visibility: inherit;" fill="rgb(0, 0, 0)" stroke="rgb(204, 204, 204)" stroke-width="1px"></line><line x1="50" y1="75.85714285714286" x2="45" y2="75.85714285714286" style="visibility: inherit;" fill="rgb(0, 0, 0)" stroke="rgb(204, 204, 204)" stroke-width="1px"></line><line x1="50" y1="50.57142857142857" x2="45" y2="50.57142857142857" style="visibility: inherit;" fill="rgb(0, 0, 0)" stroke="rgb(204, 204, 204)" stroke-width="1px"></line><line x1="50" y1="25.285714285714256" x2="45" y2="25.285714285714256" style="visibility: inherit;" fill="rgb(0, 0, 0)" stroke="rgb(204, 204, 204)" stroke-width="1px"></line><line x1="50" y1="0" x2="45" y2="0" style="visibility: inherit;" fill="rgb(0, 0, 0)" stroke="rgb(204, 204, 204)" stroke-width="1px"></line></g><g transform="translate(40, 0)"><text x="0" y="177" dx="0em" dy="0.3em" style="text-anchor: end; visibility: hidden; font-family: Roboto, sans-serif; font-size: 12px; font-weight: 200;" fill="rgb(33, 33, 33)" stroke="none" stroke-width="1px">0.15</text><text x="0" y="151.7142857142857" dx="0em" dy="0.3em" style="text-anchor: end; visibility: inherit; font-family: Roboto, sans-serif; font-size: 12px; font-weight: 200;" fill="rgb(33, 33, 33)" stroke="none" stroke-width="1px">0.2</text><text x="0" y="126.42857142857142" dx="0em" dy="0.3em" style="text-anchor: end; visibility: inherit; font-family: Roboto, sans-serif; font-size: 12px; font-weight: 200;" fill="rgb(33, 33, 33)" stroke="none" stroke-width="1px">0.25</text><text x="0" y="101.14285714285714" dx="0em" dy="0.3em" style="text-anchor: end; visibility: inherit; font-family: Roboto, sans-serif; font-size: 12px; font-weight: 200;" fill="rgb(33, 33, 33)" stroke="none" stroke-width="1px">0.3</text><text x="0" y="75.85714285714286" dx="0em" dy="0.3em" style="text-anchor: end; visibility: inherit; font-family: Roboto, sans-serif; font-size: 12px; font-weight: 200;" fill="rgb(33, 33, 33)" stroke="none" stroke-width="1px">0.35</text><text x="0" y="50.57142857142857" dx="0em" dy="0.3em" style="text-anchor: end; visibility: inherit; font-family: Roboto, sans-serif; font-size: 12px; font-weight: 200;" fill="rgb(33, 33, 33)" stroke="none" stroke-width="1px">0.4</text><text x="0" y="25.285714285714256" dx="0em" dy="0.3em" style="text-anchor: end; visibility: inherit; font-family: Roboto, sans-serif; font-size: 12px; font-weight: 200;" fill="rgb(33, 33, 33)" stroke="none" stroke-width="1px">0.45</text><text x="0" y="0" dx="0em" dy="0.3em" style="text-anchor: end; visibility: hidden; font-family: Roboto, sans-serif; font-size: 12px; font-weight: 200;" fill="rgb(33, 33, 33)" stroke="none" stroke-width="1px">0.5</text></g><line x1="50" y1="0" x2="50" y2="177" fill="rgb(0, 0, 0)" stroke="rgb(204, 204, 204)" stroke-width="1px"></line></g></g><g transform="translate(50, 0)" clip-path="url(#clip_0)"><clipPath id="clip_0"><rect width="247" height="177"></rect></clipPath><g><g><g><line x1="0" y1="0" x2="0" y2="177" fill="rgb(0, 0, 0)" stroke="rgb(66, 66, 66)" stroke-width="1px" opacity="0.25"></line><line x1="22.454545454545457" y1="0" x2="22.454545454545457" y2="177" fill="rgb(0, 0, 0)" stroke="rgb(66, 66, 66)" stroke-width="1px" opacity="0.25"></line><line x1="44.909090909090914" y1="0" x2="44.909090909090914" y2="177" fill="rgb(0, 0, 0)" stroke="rgb(66, 66, 66)" stroke-width="1px" opacity="0.25"></line><line x1="67.36363636363636" y1="0" x2="67.36363636363636" y2="177" fill="rgb(0, 0, 0)" stroke="rgb(66, 66, 66)" stroke-width="1px" opacity="0.25"></line><line x1="89.81818181818183" y1="0" x2="89.81818181818183" y2="177" fill="rgb(0, 0, 0)" stroke="rgb(66, 66, 66)" stroke-width="1px" opacity="0.25"></line><line x1="112.27272727272727" y1="0" x2="112.27272727272727" y2="177" fill="rgb(0, 0, 0)" stroke="rgb(66, 66, 66)" stroke-width="1px" opacity="0.25"></line><line x1="134.72727272727272" y1="0" x2="134.72727272727272" y2="177" fill="rgb(0, 0, 0)" stroke="rgb(66, 66, 66)" stroke-width="1px" opacity="0.25"></line><line x1="157.1818181818182" y1="0" x2="157.1818181818182" y2="177" fill="rgb(0, 0, 0)" stroke="rgb(66, 66, 66)" stroke-width="1px" opacity="0.25"></line><line x1="179.63636363636365" y1="0" x2="179.63636363636365" y2="177" fill="rgb(0, 0, 0)" stroke="rgb(66, 66, 66)" stroke-width="1px" opacity="0.25"></line><line x1="202.0909090909091" y1="0" x2="202.0909090909091" y2="177" fill="rgb(0, 0, 0)" stroke="rgb(66, 66, 66)" stroke-width="1px" opacity="0.25"></line><line x1="224.54545454545453" y1="0" x2="224.54545454545453" y2="177" fill="rgb(0, 0, 0)" stroke="rgb(66, 66, 66)" stroke-width="1px" opacity="0.25"></line><line x1="247" y1="0" x2="247" y2="177" fill="rgb(0, 0, 0)" stroke="rgb(66, 66, 66)" stroke-width="1px" opacity="0.25"></line></g><g><line x1="0" y1="177" x2="247" y2="177" fill="rgb(0, 0, 0)" stroke="rgb(66, 66, 66)" stroke-width="1px" opacity="0.25"></line><line x1="0" y1="151.7142857142857" x2="247" y2="151.7142857142857" fill="rgb(0, 0, 0)" stroke="rgb(66, 66, 66)" stroke-width="1px" opacity="0.25"></line><line x1="0" y1="126.42857142857142" x2="247" y2="126.42857142857142" fill="rgb(0, 0, 0)" stroke="rgb(66, 66, 66)" stroke-width="1px" opacity="0.25"></line><line x1="0" y1="101.14285714285714" x2="247" y2="101.14285714285714" fill="rgb(0, 0, 0)" stroke="rgb(66, 66, 66)" stroke-width="1px" opacity="0.25"></line><line x1="0" y1="75.85714285714286" x2="247" y2="75.85714285714286" fill="rgb(0, 0, 0)" stroke="rgb(66, 66, 66)" stroke-width="1px" opacity="0.25"></line><line x1="0" y1="50.57142857142857" x2="247" y2="50.57142857142857" fill="rgb(0, 0, 0)" stroke="rgb(66, 66, 66)" stroke-width="1px" opacity="0.25"></line><line x1="0" y1="25.285714285714256" x2="247" y2="25.285714285714256" fill="rgb(0, 0, 0)" stroke="rgb(66, 66, 66)" stroke-width="1px" opacity="0.25"></line><line x1="0" y1="0" x2="247" y2="0" fill="rgb(0, 0, 0)" stroke="rgb(66, 66, 66)" stroke-width="1px" opacity="0.25"></line></g></g></g><g><g><line x1="0" y1="252.85714285714286" x2="247" y2="252.85714285714286" fill="rgb(0, 0, 0)" stroke="rgb(153, 153, 153)" stroke-width="1.5px"></line></g></g><g><g><line x1="22.454545454545457" y1="0" x2="22.454545454545457" y2="177" fill="rgb(0, 0, 0)" stroke="rgb(153, 153, 153)" stroke-width="1.5px"></line></g></g><g><g><g><g><g><path stroke="rgb(255, 112, 67)" stroke-width="2px" d="M22.454545454545457,63.53898525238035L33.68181818181818,82.88443710024573L44.909090909090914,96.39540177544646L56.13636363636363,106.71481146546743L67.36363636363636,115.07162716339975L78.5909090909091,122.05741763094738L89.81818181818183,128.02630586264303L101.04545454545455,133.55508422322956L112.27272727272727,138.28430630252382L123.5,142.4511798812339L134.72727272727272,146.202364809935L145.95454545454547,149.41576859405535L157.1818181818182,152.58070661144805L168.4090909090909,155.47624887770183L179.63636363636365,158.03478884507703L190.86363636363635,160.14925998613333L202.0909090909091,162.29487083934012L213.3181818181818,164.36219138686621L224.54545454545453,166.27992789249936L235.77272727272728,168.09726683941" style="fill: none;" fill="none"></path></g><g><path stroke="rgb(187, 187, 187)" stroke-width="2px" d="M22.454545454545457,-94.98181905065263L33.68181818181818,1.5459902599318596L44.909090909090914,42.41962909227849L56.13636363636363,67.04805847549243L67.36363636363636,84.2956050812033L78.5909090909091,97.4614735223692L89.81818181818183,108.06051173071914L101.04545454545455,116.92290535301382L112.27272727272727,124.50196370610557L123.5,131.07501246009514L134.72727272727272,136.8768524241835L145.95454545454547,142.06736939505058L157.1818181818182,146.74733126060198L168.4090909090909,150.99291078597005L179.63636363636365,154.87293350253242L190.86363636363635,158.44130162996345L202.0909090909091,161.72901968619462L213.3181818181818,164.77965780168353L224.54545454545453,167.61663191101584L235.77272727272728,170.26637401575854" style="fill: none;" fill="none"></path></g><g><path stroke="rgb(0, 153, 136)" stroke-width="2px" d="M22.454545454545457,44.67480719089508L33.68181818181818,63.838526934631744L44.909090909090914,76.27578258353932L56.13636363636363,85.79317078271491L67.36363636363636,93.41228021721172L78.5909090909091,99.75645937182351L89.81818181818183,105.35183215579843L101.04545454545455,110.36421962271939L112.27272727272727,114.85030760626358L123.5,118.86885847283095L134.72727272727272,122.5355646404446L145.95454545454547,125.86135914196399L157.1818181818182,128.93490851620598L168.4090909090909,131.76408832436772L179.63636363636365,134.4693951652246L190.86363636363635,136.95468436127962L202.0909090909091,139.3223415259041L213.3181818181818,141.56785892394043L224.54545454545453,143.6606243838518L235.77272727272728,145.6466927491252" style="fill: none;" fill="none"></path></g><g><path stroke="rgb(238, 51, 119)" stroke-width="2px" d="M33.68181818181818,-9.806124541366765L44.909090909090914,27.930435445280168L56.13636363636363,50.50605507552538L67.36363636363636,66.273047775974L78.5909090909091,78.29082602858887L89.81818181818183,87.99231225445801L101.04545454545455,96.1103876204937L112.27272727272727,103.05917674106819L123.5,109.14022609597542L134.72727272727272,114.53505375736641L145.95454545454547,119.37824697601286L157.1818181818182,123.7675455463329L168.4090909090909,127.77451204104054L179.63636363636365,131.45273034032905L190.86363636363635,134.85407722571583L202.0909090909091,138.0042668749852L213.3181818181818,140.93811127703364L224.54545454545453,143.6898684420494L235.77272727272728,146.27497220747787" style="fill: none;" fill="none"></path></g><g><path stroke="rgb(51, 187, 238)" stroke-width="2px" d="M22.454545454545457,58.898723806653685L33.68181818181818,76.38979043202447L44.909090909090914,88.3840423097312L56.13636363636363,98.47631536415585L67.36363636363636,106.31760789633957L78.5909090909091,113.61317610561272L89.81818181818183,119.79688448437757L101.04545454545455,125.30490818642372L112.27272727272727,130.21680006288594L123.5,134.4991163848469L134.72727272727272,138.47894749792457L145.95454545454547,142.1351233592753L157.1818181818182,145.34819547404445L168.4090909090909,148.3155114062719L179.63636363636365,151.0138393619846L190.86363636363635,153.40887159166175L202.0909090909091,155.60287814922762L213.3181818181818,157.81222369466994L224.54545454545453,159.79504521806157L235.77272727272728,161.5321004671445" style="fill: none;" fill="none"></path></g><g><path stroke="rgb(204, 51, 17)" stroke-width="2px" d="M33.68181818181818,-4.50062907936007L44.909090909090914,35.29189133035166L56.13636363636363,59.35071886415408L67.36363636363636,76.46015313308763L78.5909090909091,89.70407741741091L89.81818181818183,100.47184574149287L101.04545454545455,109.49974886297056L112.27272727272727,117.24635152243417L123.5,123.99555107726906L134.72727272727272,129.95886882231667L145.95454545454547,135.27696507119234L157.1818181818182,140.06162119010133L168.4090909090909,144.4012385118797L179.63636363636365,148.36553283782516L190.86363636363635,152.00323887560376L202.0909090909091,155.35806521564726L213.3181818181818,158.46403522177349L224.54545454545453,161.35398758801855L235.77272727272728,164.05280957557443" style="fill: none;" fill="none"></path></g><g><path stroke="rgb(0, 119, 187)" stroke-width="2px" d="M22.454545454545457,40.281732763562886L33.68181818181818,59.021906024822634L44.909090909090914,71.19285681206821L56.13636363636363,80.39694095452293L67.36363636363636,88.02859964813086L78.5909090909091,94.55231312326069L89.81818181818183,100.28623419242362L101.04545454545455,105.38511524204203L112.27272727272727,110.03760044577523L123.5,114.21521631682035L134.72727272727272,118.02579640012112L145.95454545454547,121.5252450539412L157.1818181818182,124.73019635875629L168.4090909090909,127.71289274288918L179.63636363636365,130.52231054871856L190.86363636363635,133.14302156521225L202.0909090909091,135.57693365789228L213.3181818181818,137.8529164079088L224.54545454545453,139.9918600588588L235.77272727272728,142.01048054044034" style="fill: none;" fill="none"></path></g><g><path stroke="rgb(255, 112, 67)" stroke-width="2px" d="M33.68181818181818,-21.607137061614214L44.909090909090914,18.081108115271597L56.13636363636363,41.6571354775463L67.36363636363636,58.059186211797346L78.5909090909091,70.57656447925666L89.81818181818183,80.61799187504653L101.04545454545455,88.99057003736152L112.27272727272727,96.15324186945932L123.5,102.41005477497197L134.72727272727272,107.95548697260938L145.95454545454547,112.93213671371986L157.1818181818182,117.4425934112247L168.4090909090909,121.57468496575991L179.63636363636365,125.37089526268599L190.86363636363635,128.87434982260328L202.0909090909091,132.13773918820908L213.3181818181818,135.17239780795248L224.54545454545453,138.0116221381409L235.77272727272728,140.67221212459853" style="fill: none;" fill="none"></path></g></g></g></g><g opacity="0.2"><g><g><g><path stroke="rgb(255, 112, 67)" stroke-width="2px" d="M22.454545454545457,63.53898525238035L33.68181818181818,102.21054349626813L44.909090909090914,123.37681174278259L56.13636363636363,137.61116534471512L67.36363636363636,148.4154053245272L78.5909090909091,156.8817227227347L89.81818181818183,163.7144973022597L101.04545454545455,172.10203617811203L112.27272727272727,175.94822760139192L123.5,179.76603192942483" style="fill: none;" fill="none"></path></g><g><path stroke="rgb(187, 187, 187)" stroke-width="2px" d="M22.454545454545457,-94.98181905065263L33.68181818181818,97.97727176121302L44.909090909090914,124.04432671410697L56.13636363636363,140.78567453793116L67.36363636363636,153.1134884272303L78.5909090909091,163.09359082153867L89.81818181818183,171.43253177404404L101.04545454545455,178.71200936181205" style="fill: none;" fill="none"></path></g><g><path stroke="rgb(0, 153, 136)" stroke-width="2px" d="M22.454545454545457,44.67480719089508L33.68181818181818,82.98308295863015L44.909090909090914,101.11299455165863L56.13636363636363,114.28826911108834L67.36363636363636,123.81260301385606L78.5909090909091,131.38231924601962L89.81818181818183,138.8067616735186L101.04545454545455,145.31086538519176L112.27272727272727,150.57788857391904L123.5,154.85546286617006L134.72727272727272,159.0015612755503L145.95454545454547,162.22632625273297L157.1818181818182,165.57864099740982L168.4090909090909,168.28699746302198L179.63636363636365,172.0608609489032L190.86363636363635,173.9371748481478L202.0909090909091,176.88445917197635L213.3181818181818,179.3999160187585" style="fill: none;" fill="none"></path></g><g><path stroke="rgb(238, 51, 119)" stroke-width="2px" d="M22.454545454545457,-97.68871358462744L33.68181818181818,77.98858191285814L44.909090909090914,103.2903834751674L56.13636363636363,118.09755052839006L67.36363636363636,129.18350624186652L78.5909090909091,138.19969079324176L89.81818181818183,145.99783761160714L101.04545454545455,152.71006311689104L112.27272727272727,158.3999161209379L123.5,163.5967515196119L134.72727272727272,168.18750321865082L145.95454545454547,172.3347847376551L157.1818181818182,176.09801530838013L168.4090909090909,179.50189705405916" style="fill: none;" fill="none"></path></g><g><path stroke="rgb(51, 187, 238)" stroke-width="2px" d="M22.454545454545457,58.898723806653685L33.68181818181818,93.86336599077497L44.909090909090914,112.33657530375889L56.13636363636363,128.692621248109L67.36363636363636,137.6044434734753L78.5909090909091,149.98172943081173L89.81818181818183,156.7694930945124L101.04545454545455,163.70715750115258L112.27272727272727,169.33551894766944L123.5,172.84777202776502L134.72727272727272,178.05902327810014" style="fill: none;" fill="none"></path></g><g><path stroke="rgb(204, 51, 17)" stroke-width="2px" d="M22.454545454545457,-99.26054630960738L33.68181818181818,90.16452823366437L44.909090909090914,114.75759438105992L56.13636363636363,131.38294471161706L67.36363636363636,144.72696687494005L78.5909090909091,155.72530465466636L89.81818181818183,164.85270904643195L101.04545454545455,172.4427943570273L112.27272727272727,178.94094484192985" style="fill: none;" fill="none"></path></g><g><path stroke="rgb(0, 119, 187)" stroke-width="2px" d="M22.454545454545457,40.281732763562886L33.68181818181818,77.74333911282675L44.909090909090914,95.49825770514352L56.13636363636363,107.95400568417139L67.36363636363636,118.47899411405835L78.5909090909091,127.07315517323357L89.81818181818183,134.56954875162668L101.04545454545455,140.93479910067148L112.27272727272727,147.09038283143724L123.5,151.62626687969478L134.72727272727272,155.92264281851905L145.95454545454547,159.78898478405816L157.1818181818182,162.9405401434217L168.4090909090909,166.21760308742523L179.63636363636365,169.56044541937965L190.86363636363635,172.1406643305506L202.0909090909091,174.19016437871116L213.3181818181818,176.19824805430005L224.54545454545453,178.12915078231265" style="fill: none;" fill="none"></path></g><g><path stroke="rgb(255, 112, 67)" stroke-width="2px" d="M22.454545454545457,-115.74655345508032L33.68181818181818,72.43813991546631L44.909090909090914,97.33857342175074L56.13636363636363,112.24385568073816L67.36363636363636,123.50353257996696L78.5909090909091,132.9759453024183L89.81818181818183,140.65603737320217L101.04545454545455,147.36465326377322L112.27272727272727,153.19736110312598L123.5,158.44056384904044L134.72727272727272,163.1057233469827L145.95454545454547,167.3479173864637L157.1818181818182,171.21754493032182L168.4090909090909,174.91735479661395L179.63636363636365,178.12095944370543" style="fill: none;" fill="none"></path></g></g></g></g></g></g><g transform="translate(50, 177)" clip-path="url(#clip_1)"><clipPath id="clip_1"><rect width="247" height="23"></rect></clipPath><g><g><line x1="0" y1="0" x2="0" y2="5" style="visibility: inherit;" fill="rgb(0, 0, 0)" stroke="rgb(204, 204, 204)" stroke-width="1px"></line><line x1="22.454545454545457" y1="0" x2="22.454545454545457" y2="5" style="visibility: inherit;" fill="rgb(0, 0, 0)" stroke="rgb(204, 204, 204)" stroke-width="1px"></line><line x1="44.909090909090914" y1="0" x2="44.909090909090914" y2="5" style="visibility: inherit;" fill="rgb(0, 0, 0)" stroke="rgb(204, 204, 204)" stroke-width="1px"></line><line x1="67.36363636363636" y1="0" x2="67.36363636363636" y2="5" style="visibility: inherit;" fill="rgb(0, 0, 0)" stroke="rgb(204, 204, 204)" stroke-width="1px"></line><line x1="89.81818181818183" y1="0" x2="89.81818181818183" y2="5" style="visibility: inherit;" fill="rgb(0, 0, 0)" stroke="rgb(204, 204, 204)" stroke-width="1px"></line><line x1="112.27272727272727" y1="0" x2="112.27272727272727" y2="5" style="visibility: inherit;" fill="rgb(0, 0, 0)" stroke="rgb(204, 204, 204)" stroke-width="1px"></line><line x1="134.72727272727272" y1="0" x2="134.72727272727272" y2="5" style="visibility: inherit;" fill="rgb(0, 0, 0)" stroke="rgb(204, 204, 204)" stroke-width="1px"></line><line x1="157.1818181818182" y1="0" x2="157.1818181818182" y2="5" style="visibility: inherit;" fill="rgb(0, 0, 0)" stroke="rgb(204, 204, 204)" stroke-width="1px"></line><line x1="179.63636363636365" y1="0" x2="179.63636363636365" y2="5" style="visibility: inherit;" fill="rgb(0, 0, 0)" stroke="rgb(204, 204, 204)" stroke-width="1px"></line><line x1="202.0909090909091" y1="0" x2="202.0909090909091" y2="5" style="visibility: inherit;" fill="rgb(0, 0, 0)" stroke="rgb(204, 204, 204)" stroke-width="1px"></line><line x1="224.54545454545453" y1="0" x2="224.54545454545453" y2="5" style="visibility: inherit;" fill="rgb(0, 0, 0)" stroke="rgb(204, 204, 204)" stroke-width="1px"></line><line x1="247" y1="0" x2="247" y2="5" style="visibility: inherit;" fill="rgb(0, 0, 0)" stroke="rgb(204, 204, 204)" stroke-width="1px"></line></g><g transform="translate(0, 8)"><text x="0" y="0" dx="0em" dy="0.95em" style="text-anchor: middle; visibility: hidden; font-family: Roboto, sans-serif; font-size: 12px; font-weight: 200;" fill="rgb(33, 33, 33)" stroke="none" stroke-width="1px">-2</text><text x="22.454545454545457" y="0" dx="0em" dy="0.95em" style="text-anchor: middle; visibility: inherit; font-family: Roboto, sans-serif; font-size: 12px; font-weight: 200;" fill="rgb(33, 33, 33)" stroke="none" stroke-width="1px">0</text><text x="44.909090909090914" y="0" dx="0em" dy="0.95em" style="text-anchor: middle; visibility: inherit; font-family: Roboto, sans-serif; font-size: 12px; font-weight: 200;" fill="rgb(33, 33, 33)" stroke="none" stroke-width="1px">2</text><text x="67.36363636363636" y="0" dx="0em" dy="0.95em" style="text-anchor: middle; visibility: inherit; font-family: Roboto, sans-serif; font-size: 12px; font-weight: 200;" fill="rgb(33, 33, 33)" stroke="none" stroke-width="1px">4</text><text x="89.81818181818183" y="0" dx="0em" dy="0.95em" style="text-anchor: middle; visibility: inherit; font-family: Roboto, sans-serif; font-size: 12px; font-weight: 200;" fill="rgb(33, 33, 33)" stroke="none" stroke-width="1px">6</text><text x="112.27272727272727" y="0" dx="0em" dy="0.95em" style="text-anchor: middle; visibility: inherit; font-family: Roboto, sans-serif; font-size: 12px; font-weight: 200;" fill="rgb(33, 33, 33)" stroke="none" stroke-width="1px">8</text><text x="134.72727272727272" y="0" dx="0em" dy="0.95em" style="text-anchor: middle; visibility: inherit; font-family: Roboto, sans-serif; font-size: 12px; font-weight: 200;" fill="rgb(33, 33, 33)" stroke="none" stroke-width="1px">10</text><text x="157.1818181818182" y="0" dx="0em" dy="0.95em" style="text-anchor: middle; visibility: inherit; font-family: Roboto, sans-serif; font-size: 12px; font-weight: 200;" fill="rgb(33, 33, 33)" stroke="none" stroke-width="1px">12</text><text x="179.63636363636365" y="0" dx="0em" dy="0.95em" style="text-anchor: middle; visibility: inherit; font-family: Roboto, sans-serif; font-size: 12px; font-weight: 200;" fill="rgb(33, 33, 33)" stroke="none" stroke-width="1px">14</text><text x="202.0909090909091" y="0" dx="0em" dy="0.95em" style="text-anchor: middle; visibility: inherit; font-family: Roboto, sans-serif; font-size: 12px; font-weight: 200;" fill="rgb(33, 33, 33)" stroke="none" stroke-width="1px">16</text><text x="224.54545454545453" y="0" dx="0em" dy="0.95em" style="text-anchor: middle; visibility: inherit; font-family: Roboto, sans-serif; font-size: 12px; font-weight: 200;" fill="rgb(33, 33, 33)" stroke="none" stroke-width="1px">18</text><text x="247" y="0" dx="0em" dy="0.95em" style="text-anchor: middle; visibility: hidden; font-family: Roboto, sans-serif; font-size: 12px; font-weight: 200;" fill="rgb(33, 33, 33)" stroke="none" stroke-width="1px">20</text></g><line x1="0" y1="0" x2="247" y2="0" fill="rgb(0, 0, 0)" stroke="rgb(204, 204, 204)" stroke-width="1px"></line></g></g></g></g></svg>