<svg viewBox="0 0 330 200" xmlns="http://www.w3.org/2000/svg"><g><g><g><g><g><line x1="50" y1="177" x2="45" y2="177" style="visibility: inherit;" fill="rgb(0, 0, 0)" stroke="rgb(204, 204, 204)" stroke-width="1px"></line><line x1="50" y1="162.25" x2="45" y2="162.25" style="visibility: inherit;" fill="rgb(0, 0, 0)" stroke="rgb(204, 204, 204)" stroke-width="1px"></line><line x1="50" y1="147.49999999999997" x2="45" y2="147.49999999999997" style="visibility: inherit;" fill="rgb(0, 0, 0)" stroke="rgb(204, 204, 204)" stroke-width="1px"></line><line x1="50" y1="132.75000000000003" x2="45" y2="132.75000000000003" style="visibility: inherit;" fill="rgb(0, 0, 0)" stroke="rgb(204, 204, 204)" stroke-width="1px"></line><line x1="50" y1="118.00000000000001" x2="45" y2="118.00000000000001" style="visibility: inherit;" fill="rgb(0, 0, 0)" stroke="rgb(204, 204, 204)" stroke-width="1px"></line><line x1="50" y1="103.25000000000003" x2="45" y2="103.25000000000003" style="visibility: inherit;" fill="rgb(0, 0, 0)" stroke="rgb(204, 204, 204)" stroke-width="1px"></line><line x1="50" y1="88.5" x2="45" y2="88.5" style="visibility: inherit;" fill="rgb(0, 0, 0)" stroke="rgb(204, 204, 204)" stroke-width="1px"></line><line x1="50" y1="73.75" x2="45" y2="73.75" style="visibility: inherit;" fill="rgb(0, 0, 0)" stroke="rgb(204, 204, 204)" stroke-width="1px"></line><line x1="50" y1="58.999999999999964" x2="45" y2="58.999999999999964" style="visibility: inherit;" fill="rgb(0, 0, 0)" stroke="rgb(204, 204, 204)" stroke-width="1px"></line><line x1="50" y1="44.25000000000004" x2="45" y2="44.25000000000004" style="visibility: inherit;" fill="rgb(0, 0, 0)" stroke="rgb(204, 204, 204)" stroke-width="1px"></line><line x1="50" y1="29.500000000000032" x2="45" y2="29.500000000000032" style="visibility: inherit;" fill="rgb(0, 0, 0)" stroke="rgb(204, 204, 204)" stroke-width="1px"></line><line x1="50" y1="14.750000000000007" x2="45" y2="14.750000000000007" style="visibility: inherit;" fill="rgb(0, 0, 0)" stroke="rgb(204, 204, 204)" stroke-width="1px"></line><line x1="50" y1="0" x2="45" y2="0" style="visibility: inherit;" fill="rgb(0, 0, 0)" stroke="rgb(204, 204, 204)" stroke-width="1px"></line></g><g transform="translate(40, 0)"><text x="0" y="177" dx="0em" dy="0.3em" style="text-anchor: end; visibility: hidden; font-family: Roboto, sans-serif; font-size: 12px; font-weight: 200;" fill="rgb(33, 33, 33)" stroke="none" stroke-width="1px">0.76</text><text x="0" y="162.25" dx="0em" dy="0.3em" style="text-anchor: end; visibility: inherit; font-family: Roboto, sans-serif; font-size: 12px; font-weight: 200;" fill="rgb(33, 33, 33)" stroke="none" stroke-width="1px">0.78</text><text x="0" y="147.49999999999997" dx="0em" dy="0.3em" style="text-anchor: end; visibility: hidden; font-family: Roboto, sans-serif; font-size: 12px; font-weight: 200;" fill="rgb(33, 33, 33)" stroke="none" stroke-width="1px">0.8</text><text x="0" y="132.75000000000003" dx="0em" dy="0.3em" style="text-anchor: end; visibility: inherit; font-family: Roboto, sans-serif; font-size: 12px; font-weight: 200;" fill="rgb(33, 33, 33)" stroke="none" stroke-width="1px">0.82</text><text x="0" y="118.00000000000001" dx="0em" dy="0.3em" style="text-anchor: end; visibility: hidden; font-family: Roboto, sans-serif; font-size: 12px; font-weight: 200;" fill="rgb(33, 33, 33)" stroke="none" stroke-width="1px">0.84</text><text x="0" y="103.25000000000003" dx="0em" dy="0.3em" style="text-anchor: end; visibility: inherit; font-family: Roboto, sans-serif; font-size: 12px; font-weight: 200;" fill="rgb(33, 33, 33)" stroke="none" stroke-width="1px">0.86</text><text x="0" y="88.5" dx="0em" dy="0.3em" style="text-anchor: end; visibility: hidden; font-family: Roboto, sans-serif; font-size: 12px; font-weight: 200;" fill="rgb(33, 33, 33)" stroke="none" stroke-width="1px">0.88</text><text x="0" y="73.75" dx="0em" dy="0.3em" style="text-anchor: end; visibility: inherit; font-family: Roboto, sans-serif; font-size: 12px; font-weight: 200;" fill="rgb(33, 33, 33)" stroke="none" stroke-width="1px">0.9</text><text x="0" y="58.999999999999964" dx="0em" dy="0.3em" style="text-anchor: end; visibility: hidden; font-family: Roboto, sans-serif; font-size: 12px; font-weight: 200;" fill="rgb(33, 33, 33)" stroke="none" stroke-width="1px">0.92</text><text x="0" y="44.25000000000004" dx="0em" dy="0.3em" style="text-anchor: end; visibility: inherit; font-family: Roboto, sans-serif; font-size: 12px; font-weight: 200;" fill="rgb(33, 33, 33)" stroke="none" stroke-width="1px">0.94</text><text x="0" y="29.500000000000032" dx="0em" dy="0.3em" style="text-anchor: end; visibility: hidden; font-family: Roboto, sans-serif; font-size: 12px; font-weight: 200;" fill="rgb(33, 33, 33)" stroke="none" stroke-width="1px">0.96</text><text x="0" y="14.750000000000007" dx="0em" dy="0.3em" style="text-anchor: end; visibility: inherit; font-family: Roboto, sans-serif; font-size: 12px; font-weight: 200;" fill="rgb(33, 33, 33)" stroke="none" stroke-width="1px">0.98</text><text x="0" y="0" dx="0em" dy="0.3em" style="text-anchor: end; visibility: hidden; font-family: Roboto, sans-serif; font-size: 12px; font-weight: 200;" fill="rgb(33, 33, 33)" stroke="none" stroke-width="1px">1</text></g><line x1="50" y1="0" x2="50" y2="177" fill="rgb(0, 0, 0)" stroke="rgb(204, 204, 204)" stroke-width="1px"></line></g></g><g transform="translate(50, 0)" clip-path="url(#clip_0)"><clipPath id="clip_0"><rect width="280" height="177"></rect></clipPath><g><g><g><line x1="0" y1="0" x2="0" y2="177" fill="rgb(0, 0, 0)" stroke="rgb(66, 66, 66)" stroke-width="1px" opacity="0.25"></line><line x1="25.454545454545457" y1="0" x2="25.454545454545457" y2="177" fill="rgb(0, 0, 0)" stroke="rgb(66, 66, 66)" stroke-width="1px" opacity="0.25"></line><line x1="50.909090909090914" y1="0" x2="50.909090909090914" y2="177" fill="rgb(0, 0, 0)" stroke="rgb(66, 66, 66)" stroke-width="1px" opacity="0.25"></line><line x1="76.36363636363636" y1="0" x2="76.36363636363636" y2="177" fill="rgb(0, 0, 0)" stroke="rgb(66, 66, 66)" stroke-width="1px" opacity="0.25"></line><line x1="101.81818181818183" y1="0" x2="101.81818181818183" y2="177" fill="rgb(0, 0, 0)" stroke="rgb(66, 66, 66)" stroke-width="1px" opacity="0.25"></line><line x1="127.27272727272727" y1="0" x2="127.27272727272727" y2="177" fill="rgb(0, 0, 0)" stroke="rgb(66, 66, 66)" stroke-width="1px" opacity="0.25"></line><line x1="152.72727272727272" y1="0" x2="152.72727272727272" y2="177" fill="rgb(0, 0, 0)" stroke="rgb(66, 66, 66)" stroke-width="1px" opacity="0.25"></line><line x1="178.1818181818182" y1="0" x2="178.1818181818182" y2="177" fill="rgb(0, 0, 0)" stroke="rgb(66, 66, 66)" stroke-width="1px" opacity="0.25"></line><line x1="203.63636363636365" y1="0" x2="203.63636363636365" y2="177" fill="rgb(0, 0, 0)" stroke="rgb(66, 66, 66)" stroke-width="1px" opacity="0.25"></line><line x1="229.0909090909091" y1="0" x2="229.0909090909091" y2="177" fill="rgb(0, 0, 0)" stroke="rgb(66, 66, 66)" stroke-width="1px" opacity="0.25"></line><line x1="254.54545454545453" y1="0" x2="254.54545454545453" y2="177" fill="rgb(0, 0, 0)" stroke="rgb(66, 66, 66)" stroke-width="1px" opacity="0.25"></line><line x1="280" y1="0" x2="280" y2="177" fill="rgb(0, 0, 0)" stroke="rgb(66, 66, 66)" stroke-width="1px" opacity="0.25"></line></g><g><line x1="0" y1="177" x2="280" y2="177" fill="rgb(0, 0, 0)" stroke="rgb(66, 66, 66)" stroke-width="1px" opacity="0.25"></line><line x1="0" y1="162.25" x2="280" y2="162.25" fill="rgb(0, 0, 0)" stroke="rgb(66, 66, 66)" stroke-width="1px" opacity="0.25"></line><line x1="0" y1="147.49999999999997" x2="280" y2="147.49999999999997" fill="rgb(0, 0, 0)" stroke="rgb(66, 66, 66)" stroke-width="1px" opacity="0.25"></line><line x1="0" y1="132.75000000000003" x2="280" y2="132.75000000000003" fill="rgb(0, 0, 0)" stroke="rgb(66, 66, 66)" stroke-width="1px" opacity="0.25"></line><line x1="0" y1="118.00000000000001" x2="280" y2="118.00000000000001" fill="rgb(0, 0, 0)" stroke="rgb(66, 66, 66)" stroke-width="1px" opacity="0.25"></line><line x1="0" y1="103.25000000000003" x2="280" y2="103.25000000000003" fill="rgb(0, 0, 0)" stroke="rgb(66, 66, 66)" stroke-width="1px" opacity="0.25"></line><line x1="0" y1="88.5" x2="280" y2="88.5" fill="rgb(0, 0, 0)" stroke="rgb(66, 66, 66)" stroke-width="1px" opacity="0.25"></line><line x1="0" y1="73.75" x2="280" y2="73.75" fill="rgb(0, 0, 0)" stroke="rgb(66, 66, 66)" stroke-width="1px" opacity="0.25"></line><line x1="0" y1="58.999999999999964" x2="280" y2="58.999999999999964" fill="rgb(0, 0, 0)" stroke="rgb(66, 66, 66)" stroke-width="1px" opacity="0.25"></line><line x1="0" y1="44.25000000000004" x2="280" y2="44.25000000000004" fill="rgb(0, 0, 0)" stroke="rgb(66, 66, 66)" stroke-width="1px" opacity="0.25"></line><line x1="0" y1="29.500000000000032" x2="280" y2="29.500000000000032" fill="rgb(0, 0, 0)" stroke="rgb(66, 66, 66)" stroke-width="1px" opacity="0.25"></line><line x1="0" y1="14.750000000000007" x2="280" y2="14.750000000000007" fill="rgb(0, 0, 0)" stroke="rgb(66, 66, 66)" stroke-width="1px" opacity="0.25"></line><line x1="0" y1="0" x2="280" y2="0" fill="rgb(0, 0, 0)" stroke="rgb(66, 66, 66)" stroke-width="1px" opacity="0.25"></line></g></g></g><g><g><line x1="0" y1="737.5" x2="280" y2="737.5" fill="rgb(0, 0, 0)" stroke="rgb(153, 153, 153)" stroke-width="1.5px"></line></g></g><g><g><line x1="25.454545454545457" y1="0" x2="25.454545454545457" y2="177" fill="rgb(0, 0, 0)" stroke="rgb(153, 153, 153)" stroke-width="1.5px"></line></g></g><g><g><g><g><g><path stroke="rgb(238, 51, 119)" stroke-width="2px" d="M25.454545454545457,80.14166057109824L38.18181818181818,74.61042683571569L50.909090909090914,70.28325250258243L63.63636363636363,67.07498707041583L76.36363636363636,66.55814223906633L89.0909090909091,65.81085674778808L101.81818181818183,65.53717888561057L114.54545454545455,64.72788485784156L127.27272727272727,63.506089292207655L140,63.720792356891586L152.72727272727272,63.5033502061852L165.45454545454547,62.732841051677646L178.1818181818182,63.65006555229794L190.9090909090909,62.13302247837711L203.63636363636365,61.6170652650134L216.36363636363635,61.01256679467522L229.0909090909091,61.584304316647824L241.8181818181818,61.0913744889637L254.54545454545453,61.139828911998386L267.2727272727273,61.66058385060409" style="fill: none;" fill="none"></path></g><g><path stroke="rgb(51, 187, 238)" stroke-width="2px" d="M25.454545454545457,109.60070714354515L38.18181818181818,84.35156447812915L50.909090909090914,74.35761363226536L63.63636363636363,68.51750526796374L76.36363636363636,64.8752478211808L89.0909090909091,62.261141563248444L101.81818181818183,60.63810531424272L114.54545454545455,59.143790134652114L127.27272727272727,58.00404381162586L140,56.997826217696584L152.72727272727272,56.39800373604733L165.45454545454547,55.645307938877195L178.1818181818182,55.20021602269309L190.9090909090909,54.878858833801836L203.63636363636365,54.47851884680697L216.36363636363635,54.13461143405753L229.0909090909091,53.80812640808347L241.8181818181818,53.568554066211995L254.54545454545453,53.41935747247107L267.2727272727273,53.20420756130319" style="fill: none;" fill="none"></path></g><g><path stroke="rgb(187, 187, 187)" stroke-width="2px" d="M25.454545454545457,75.59376582503319L38.18181818181818,66.45184196531773L50.909090909090914,62.022750246889714L63.63636363636363,54.25053047399761L76.36363636363636,47.940473473584994L89.0909090909091,43.34924221849108L101.81818181818183,40.077964006663876L114.54545454545455,36.92464275052669L127.27272727272727,34.32188458295427L140,32.2824616797882L152.72727272727272,30.671974339451328L165.45454545454547,29.118132372806933L178.1818181818182,28.138767346769313L190.9090909090909,27.05991581908187L203.63636363636365,26.757467433857176L216.36363636363635,27.067894382042446L229.0909090909091,26.467298915581658L241.8181818181818,26.057838608579747L254.54545454545453,25.12381089969977L267.2727272727273,24.268423713957155" style="fill: none;" fill="none"></path></g><g><path stroke="rgb(0, 153, 136)" stroke-width="2px" d="M25.454545454545457,164.20300602912903L38.18181818181818,102.32641194015741L50.909090909090914,77.3432968070313L63.63636363636363,62.80655914588886L76.36363636363636,52.54266318980813L89.0909090909091,45.212493434840475L101.81818181818183,39.34785399617655L114.54545454545455,34.78023409590476L127.27272727272727,31.31114551152104L140,28.35632910202382L152.72727272727272,25.64089740148029L165.45454545454547,23.454044153850564L178.1818181818182,21.63626446354993L190.9090909090909,20.027719517920023L203.63636363636365,18.593368594468718L216.36363636363635,17.290561819881514L229.0909090909091,16.170347215997197L241.8181818181818,15.18145530559662L254.54545454545453,14.28770149929012L267.2727272727273,13.41278081181762" style="fill: none;" fill="none"></path></g><g><path stroke="rgb(204, 51, 17)" stroke-width="2px" d="M25.454545454545457,101.4062412083149L38.18181818181818,94.56900265067816L50.909090909090914,88.90136547234599L63.63636363636363,85.27118960833734L76.36363636363636,82.7265072947447L89.0909090909091,80.76523812817831L101.81818181818183,78.28298512066327L114.54545454545455,76.8888677994634L127.27272727272727,75.37221019991334L140,74.17524870057697L152.72727272727272,73.51108047314152L165.45454545454547,72.71992695889172L178.1818181818182,71.9509564885428L190.9090909090909,71.2933932454118L203.63636363636365,70.84999901305802L216.36363636363635,69.9447424776802L229.0909090909091,69.40175202912754L241.8181818181818,68.83015852023956L254.54545454545453,68.29055758902565L267.2727272727273,67.91765317432571L25.454545454545457,81.2150538861372L38.18181818181818,84.86658109704038L50.909090909090914,84.40244471146494L63.63636363636363,83.14062817102348L76.36363636363636,81.54771419415371L89.0909090909091,79.65779782043026L101.81818181818183,78.32717986238879L114.54545454545455,76.54547695975161L127.27272727272727,75.27978585016577L140,74.12703140435288L152.72727272727272,72.99289332996919L165.45454545454547,71.86990745172824L178.1818181818182,71.2944421928859L190.9090909090909,70.45749684330382L203.63636363636365,70.15199964806709L216.36363636363635,69.87037512706473L229.0909090909091,68.7672311180911L241.8181818181818,68.15450782036245L254.54545454545453,67.8852000496078L267.2727272727273,67.47778228832186L25.454545454545457,81.68833895817465L38.18181818181818,85.00299718715354L50.909090909090914,85.07429043496278L63.63636363636363,83.44541537760074L76.36363636363636,80.99307416651017L89.0909090909091,79.03000324221149L101.81818181818183,77.50800138260212L114.54545454545455,76.10313406908497L127.27272727272727,74.8668736894202L140,73.53512505764307L152.72727272727272,72.29357278390849L165.45454545454547,71.45031521346401L178.1818181818182,70.79685377851743L190.9090909090909,70.45394002065392L203.63636363636365,70.1498655597288L216.36363636363635,69.18075848340465L229.0909090909091,68.79594665002496L241.8181818181818,68.46673334378997L254.54545454545453,67.92504605495333L267.2727272727273,67.79668609406588L25.454545454545457,80.99467504087752L38.18181818181818,84.93097572364613L50.909090909090914,84.7360813548458L63.63636363636363,83.19330924333885L76.36363636363636,81.38265737045863L89.0909090909091,79.80460004895359L101.81818181818183,78.66109566026596L114.54545454545455,77.08998683770703L127.27272727272727,75.75399913597232L140,74.31323342447348L152.72727272727272,73.30126710489311L165.45454545454547,72.30076490494557L178.1818181818182,71.30712359340755L190.9090909090909,70.90760880226952L203.63636363636365,69.8812375278178L216.36363636363635,69.56041096513887L229.0909090909091,68.97457503596199L241.8181818181818,68.27891417336016L254.54545454545453,67.71401076311797L267.2727272727273,67.47341250655018L25.454545454545457,80.70238468216037L38.18181818181818,84.31309841374268L50.909090909090914,84.2178656595928L63.63636363636363,82.98072361576453L76.36363636363636,81.45177598969876L89.0909090909091,80.09190431938613L101.81818181818183,78.48930133405949L114.54545454545455,77.03607334508673L127.27272727272727,75.67247035392626L140,74.11680926256479L152.72727272727272,72.88841640575589L165.45454545454547,71.90554759278216L178.1818181818182,71.56165940388632L190.9090909090909,70.71617098346105L203.63636363636365,69.91386414584362L216.36363636363635,69.38331694016964L229.0909090909091,68.96666241055789L241.8181818181818,68.76583279589454L254.54545454545453,68.49782813441543L267.2727272727273,68.2386991313206" style="fill: none;" fill="none"></path></g><g><path stroke="rgb(0, 119, 187)" stroke-width="2px" d="M25.454545454545457,137.84421533346176L38.18181818181818,107.3625913821161L50.909090909090914,93.71128831895034L63.63636363636363,85.64254747813241L76.36363636363636,80.28895811673512L89.0909090909091,76.39357502363171L101.81818181818183,73.51282156615159L114.54545454545455,71.56460028727759L127.27272727272727,69.71044911798518L140,68.34617393799442L152.72727272727272,67.0120270797088L165.45454545454547,66.04492860891312L178.1818181818182,65.0885733324055L190.9090909090909,64.49370452309554L203.63636363636365,63.765423112095306L216.36363636363635,63.03357644512863L229.0909090909091,62.45255567835453L241.8181818181818,62.049369086845154L254.54545454545453,61.58894389814079L267.2727272727273,61.12149818316963L25.454545454545457,92.9912865605994L38.18181818181818,91.30401419734005L50.909090909090914,87.40172735935474L63.63636363636363,83.20296445013216L76.36363636363636,79.33981863184961L89.0909090909091,76.1751743664678L101.81818181818183,73.52250349286064L114.54545454545455,71.44470463807336L127.27272727272727,69.74460360717914L140,68.22194022438818L152.72727272727272,67.0133461690295L165.45454545454547,65.9276428035898L178.1818181818182,65.06861397765852L190.9090909090909,64.36746356351635L203.63636363636365,63.60261401687593L216.36363636363635,62.979809701900365L229.0909090909091,62.453169378633895L241.8181818181818,61.92957833393438L254.54545454545453,61.37505903707007L267.2727272727273,61.08059128999712L25.454545454545457,92.69835409602256L38.18181818181818,91.2539276895768L50.909090909090914,87.43180623050516L63.63636363636363,83.30297017261972L76.36363636363636,79.32881381569076L89.0909090909091,76.27238909259916L101.81818181818183,73.64640343093276L114.54545454545455,71.6119212382778L127.27272727272727,69.85038503845612L140,68.48754784368413L152.72727272727272,67.2218740040178L165.45454545454547,66.06914729202138L178.1818181818182,65.27916747524802L190.9090909090909,64.55389564153167L203.63636363636365,63.81826791117512L216.36363636363635,63.092814343868945L229.0909090909091,62.50458446603957L241.8181818181818,62.047851904999774L254.54545454545453,61.555286243421705L267.2727272727273,61.16142064026755L25.454545454545457,92.85611474330375L38.18181818181818,91.52339794525591L50.909090909090914,87.64811991625473L63.63636363636363,83.41090225561526L76.36363636363636,79.78144462933585L89.0909090909091,76.69145689028757L101.81818181818183,74.00163874398632L114.54545454545455,71.7649624667822L127.27272727272727,70.00230973495589L140,68.64425346573316L152.72727272727272,67.43609729600017L165.45454545454547,66.33971973176043L178.1818181818182,65.53438630053546L190.9090909090909,64.71247778146956L203.63636363636365,63.8533172357649L216.36363636363635,63.27227010420386L229.0909090909091,62.67234029824396L241.8181818181818,62.14850540432254L254.54545454545453,61.75224837942676L267.2727272727273,61.34514872600888L25.454545454545457,92.9882077239171L38.18181818181818,91.34588377846572L50.909090909090914,87.29030988915747L63.63636363636363,83.17437769355769L76.36363636363636,79.31722671617504L89.0909090909091,76.15617377060319L101.81818181818183,73.6094496399025L114.54545454545455,71.61158750950447L127.27272727272727,69.74093932210897L140,68.3891050118178L152.72727272727272,67.11364520180047L165.45454545454547,66.0096608554591L178.1818181818182,65.03588634462763L190.9090909090909,64.28227619964844L203.63636363636365,63.633440116876095L216.36363636363635,63.09118072976689L229.0909090909091,62.63470590585488L241.8181818181818,62.06035638138065L254.54545454545453,61.60648360421898L267.2727272727273,61.18120220047614" style="fill: none;" fill="none"></path></g></g></g></g><g opacity="0.2"><g><g><g><path stroke="rgb(238, 51, 119)" stroke-width="2px" d="M25.454545454545457,80.14166057109833L38.18181818181818,71.29168659448624L50.909090909090914,66.12916514277458L63.63636363636363,63.30206692218781L76.36363636363636,65.8833496272564L89.0909090909091,64.7770918905735L101.81818181818183,65.14581516385078L114.54545454545455,63.547926396131516L127.27272727272727,61.704178154468536L140,64.03960138559341L152.72727272727272,63.17915916442872L165.45454545454547,61.58127039670944L178.1818181818182,65.02290740609169L190.9090909090909,59.86042991280556L203.63636363636365,60.843735933303826L216.36363636363635,60.106245428323746L229.0909090909091,62.44166865944862L241.8181818181818,60.35210490226745L254.54545454545453,61.212503165006645L267.2727272727273,62.44166865944862" style="fill: none;" fill="none"></path></g><g><path stroke="rgb(51, 187, 238)" stroke-width="2px" d="M25.454545454545457,109.60070714354515L38.18181818181818,69.20207887887955L50.909090909090914,64.7634208202362L63.63636363636363,61.64953783154488L76.36363636363636,60.11991649866105L89.0909090909091,58.64489153027535L101.81818181818183,58.31713750958442L114.54545454545455,56.965064257383354L127.27272727272727,56.32313936948776L140,55.50371035933494L152.72727272727272,55.50371035933494L165.45454545454547,54.520360380411155L178.1818181818182,54.53403145074844L190.9090909090909,54.39745262265206L203.63636363636365,53.87847945094108L216.36363636363635,53.61899286508561L229.0909090909091,53.318537026643746L241.8181818181818,53.20925638079644L254.54545454545453,53.19558531045914L267.2727272727273,52.88150236010551" style="fill: none;" fill="none"></path></g><g><path stroke="rgb(187, 187, 187)" stroke-width="2px" d="M25.454545454545457,75.59376582503319L38.18181818181818,60.966687649488456L50.909090909090914,57.770822197198875L63.63636363636363,45.11040002107621L76.36363636363636,39.702063053846366L89.0909090909091,36.99791654944419L101.81818181818183,35.3999838232994L114.54545454545455,32.32707008719445L127.27272727272727,30.48332184553147L140,29.254156351089478L152.72727272727272,28.27085033059121L165.45454545454547,26.795825362205512L178.1818181818182,26.67291760444642L190.9090909090909,25.443752110004425L203.63636363636365,26.3041503727436L216.36363636363635,27.533315867185593L229.0909090909091,25.56665986776352L241.8181818181818,25.443752110004425L254.54545454545453,23.72291162610054L267.2727272727273,22.98542112112046" style="fill: none;" fill="none"></path></g><g><path stroke="rgb(0, 153, 136)" stroke-width="2px" d="M25.454545454545457,164.20300602912903L38.18181818181818,65.20045548677444L50.909090909090914,53.35950627923012L63.63636363636363,45.71135565638543L76.36363636363636,39.142120629549034L89.0909090909091,35.07222980260849L101.81818181818183,30.96132576465606L114.54545454545455,28.12060043215751L127.27272727272727,26.194913685321808L140,23.968771100044243L152.72727272727272,21.592378616333L165.45454545454547,20.18566504120826L178.1818181818182,18.915530294179916L190.9090909090909,17.618053406476967L203.63636363636365,16.44352823495865L216.36363636363635,15.33727049827575L229.0909090909091,14.490499347448342L241.8181818181818,13.698368519544609L254.54545454545453,12.947206944227226L267.2727272727273,12.100479751825333" style="fill: none;" fill="none"></path></g><g><path stroke="rgb(204, 51, 17)" stroke-width="2px" d="M25.454545454545457,101.4062412083149L38.18181818181818,90.46665951609612L50.909090909090914,83.460433781147L63.63636363636363,81.00210279226303L76.36363636363636,79.40417006611824L89.0909090909091,78.05209681391716L101.81818181818183,74.73332360386848L114.54545454545455,74.85623136162758L127.27272727272727,73.13543483614922L140,72.3979003727436L152.72727272727272,72.52085208892822L165.45454545454547,71.53750211000443L178.1818181818182,70.80001160502434L190.9090909090909,70.30833661556244L203.63636363636365,70.18542885780334L216.36363636363635,68.58749613165855L229.0909090909091,68.58749613165855L241.8181818181818,67.97291338443756L254.54545454545453,67.48123839497566L267.2727272727273,67.35833063721657L25.454545454545457,101.16042569279671L38.18181818181818,90.34375175833702L50.909090909090914,83.70624929666519L63.63636363636363,81.24791830778122L76.36363636363636,79.15835455060005L89.0909090909091,76.82293131947517L101.81818181818183,76.33125633001328L114.54545454545455,73.8729253411293L127.27272727272727,73.3812503516674L140,72.3979003727436L152.72727272727272,71.29168659448624L165.45454545454547,70.18542885780334L178.1818181818182,70.43124437332153L190.9090909090909,69.20207887887955L203.63636363636365,69.69375386834145L216.36363636363635,69.44793835282326L229.0909090909091,67.11251512169838L241.8181818181818,67.23542287945747L254.54545454545453,67.48123839497566L267.2727272727273,66.86665564775467L25.454545454545457,103.00417393445969L38.18181818181818,89.97498452663423L50.909090909090914,85.18123030662537L63.63636363636363,81.00210279226303L76.36363636363636,77.31456235051155L89.0909090909091,76.08539685606956L101.81818181818183,75.22499859333038L114.54545454545455,73.9958330988884L127.27272727272727,73.0124831199646L140,71.53750211000443L152.72727272727272,70.43124437332153L165.45454545454547,70.18542885780334L178.1818181818182,69.81666162610054L190.9090909090909,69.93956938385963L203.63636363636365,69.69375386834145L216.36363636363635,67.72709786891937L229.0909090909091,68.21872889995575L241.8181818181818,67.97291338443756L254.54545454545453,67.11251512169838L267.2727272727273,67.60414615273476L25.454545454545457,100.79165846109392L38.18181818181818,90.83542674779892L50.909090909090914,84.44373980164528L63.63636363636363,80.87915107607841L76.36363636363636,78.66667956113815L89.0909090909091,77.43751406669617L101.81818181818183,76.94583907723427L114.54545454545455,74.73332360386848L127.27272727272727,73.75001758337021L140,72.15208485722542L152.72727272727272,71.78331762552261L165.45454545454547,70.80001160502434L178.1818181818182,69.81666162610054L190.9090909090909,70.30833661556244L203.63636363636365,68.34168061614037L216.36363636363635,69.07917112112045L229.0909090909091,68.09582114219666L241.8181818181818,67.23542287945747L254.54545454545453,66.86665564775467L267.2727272727273,67.11251512169838L25.454545454545457,100.54584294557573L38.18181818181818,89.72916901111604L50.909090909090914,84.075016528368L63.63636363636363,81.12501055002213L76.36363636363636,79.15835455060005L89.0909090909091,78.05209681391716L101.81818181818183,76.08539685606956L114.54545454545455,74.85623136162758L127.27272727272727,73.62706586718559L140,71.78331762552261L152.72727272727272,71.04582712054253L165.45454545454547,70.43124437332153L178.1818181818182,71.04582712054253L190.9090909090909,69.44793835282326L203.63636363636365,68.71040388941765L216.36363636363635,68.58749613165855L229.0909090909091,68.34168061614037L241.8181818181818,68.46458837389946L254.54545454545453,68.09582114219666L267.2727272727273,67.85000562667847" style="fill: none;" fill="none"></path></g><g><path stroke="rgb(0, 119, 187)" stroke-width="2px" d="M25.454545454545457,137.84421533346176L38.18181818181818,89.07361701130868L50.909090909090914,80.60603737831116L63.63636363636363,76.15370824933052L76.36363636363636,73.29931184649467L89.0909090909091,71.00485786795616L101.81818181818183,69.3932980298996L114.54545454545455,68.72407495975494L127.27272727272727,66.97593629360199L140,66.32038429379463L152.72727272727272,65.02290740609169L165.45454545454547,64.59954380989075L178.1818181818182,63.65716308355331L190.9090909090909,63.60256671905517L203.63636363636365,62.67385706305504L216.36363636363635,61.93632259964942L229.0909090909091,61.58127039670944L241.8181818181818,61.444691568613045L254.54545454545453,60.8983762562275L267.2727272727273,60.42037233710289L25.454545454545457,140.79422131180763L38.18181818181818,88.77316117286682L50.909090909090914,81.54837414622307L63.63636363636363,76.9048698246479L76.36363636363636,73.54512736201286L89.0909090909091,71.4282214641571L101.81818181818183,69.54350396990776L114.54545454545455,68.32800954580307L127.27272727272727,67.19445362687111L140,65.93794599175453L152.72727272727272,65.20045548677444L165.45454545454547,64.2990879714489L178.1818181818182,63.7800708413124L190.9090909090909,63.315737992525094L203.63636363636365,62.45533972978592L216.36363636363635,62.04560324549675L229.0909090909091,61.663208901882165L241.8181818181818,61.14419177174569L254.54545454545453,60.543280094861984L267.2727272727273,60.63888967037201L25.454545454545457,140.12499824166298L38.18181818181818,89.08728808164597L50.909090909090914,81.69862404465675L63.63636363636363,77.10971608757973L76.36363636363636,73.36757928133011L89.0909090909091,71.68775200843811L101.81818181818183,69.70742493867874L114.54545454545455,68.56019794940948L127.27272727272727,67.20808073878288L140,66.44329205155373L152.72727272727272,65.32336324453354L165.45454545454547,64.34005722403526L178.1818181818182,64.09419775009155L190.9090909090909,63.46598789095879L203.63636363636365,62.71482631564141L216.36363636363635,62.00463399291038L229.0909090909091,61.622239649295814L241.8181818181818,61.36275306344032L254.54545454545453,60.81643775105476L267.2727272727273,60.57062223553657L25.454545454545457,140.39815589785576L38.18181818181818,89.5243227481842L50.909090909090914,81.83520287275314L63.63636363636363,77.05507576465607L76.36363636363636,74.33725818991661L89.0909090909091,72.0564752817154L101.81818181818183,69.96691152453423L114.54545454545455,68.4099480509758L127.27272727272727,67.35833063721657L140,66.60716906189919L152.72727272727272,65.62386304140091L165.45454545454547,64.69515338540077L178.1818181818182,64.32638615369797L190.9090909090909,63.47961500287056L203.63636363636365,62.56457641720771L216.36363636363635,62.400699406862266L229.0909090909091,61.77244558930398L241.8181818181818,61.36275306344032L254.54545454545453,61.15786284208297L267.2727272727273,60.734499245882034L25.454545454545457,140.45279622077942L38.18181818181818,88.88239786028863L50.909090909090914,81.20694905519485L63.63636363636363,77.00047940015793L76.36363636363636,73.53150025010109L89.0909090909091,71.41459435224533L101.81818181818183,69.78936344385147L114.54545454545455,68.61479431390762L127.27272727272727,66.93496704101562L140,66.361353546381L152.72727272727272,65.20045548677444L165.45454545454547,64.35368433594704L178.1818181818182,63.575224578380585L190.9090909090909,63.15186098217965L203.63636363636365,62.660185992717736L216.36363636363635,62.27779164910317L229.0909090909091,61.949993669986725L241.8181818181818,61.19883209466934L254.54545454545453,60.92567443847657L267.2727272727273,60.543280094861984" style="fill: none;" fill="none"></path></g></g></g></g></g></g><g transform="translate(50, 177)" clip-path="url(#clip_1)"><clipPath id="clip_1"><rect width="280" height="23"></rect></clipPath><g><g><line x1="0" y1="0" x2="0" y2="5" style="visibility: inherit;" fill="rgb(0, 0, 0)" stroke="rgb(204, 204, 204)" stroke-width="1px"></line><line x1="25.454545454545457" y1="0" x2="25.454545454545457" y2="5" style="visibility: inherit;" fill="rgb(0, 0, 0)" stroke="rgb(204, 204, 204)" stroke-width="1px"></line><line x1="50.909090909090914" y1="0" x2="50.909090909090914" y2="5" style="visibility: inherit;" fill="rgb(0, 0, 0)" stroke="rgb(204, 204, 204)" stroke-width="1px"></line><line x1="76.36363636363636" y1="0" x2="76.36363636363636" y2="5" style="visibility: inherit;" fill="rgb(0, 0, 0)" stroke="rgb(204, 204, 204)" stroke-width="1px"></line><line x1="101.81818181818183" y1="0" x2="101.81818181818183" y2="5" style="visibility: inherit;" fill="rgb(0, 0, 0)" stroke="rgb(204, 204, 204)" stroke-width="1px"></line><line x1="127.27272727272727" y1="0" x2="127.27272727272727" y2="5" style="visibility: inherit;" fill="rgb(0, 0, 0)" stroke="rgb(204, 204, 204)" stroke-width="1px"></line><line x1="152.72727272727272" y1="0" x2="152.72727272727272" y2="5" style="visibility: inherit;" fill="rgb(0, 0, 0)" stroke="rgb(204, 204, 204)" stroke-width="1px"></line><line x1="178.1818181818182" y1="0" x2="178.1818181818182" y2="5" style="visibility: inherit;" fill="rgb(0, 0, 0)" stroke="rgb(204, 204, 204)" stroke-width="1px"></line><line x1="203.63636363636365" y1="0" x2="203.63636363636365" y2="5" style="visibility: inherit;" fill="rgb(0, 0, 0)" stroke="rgb(204, 204, 204)" stroke-width="1px"></line><line x1="229.0909090909091" y1="0" x2="229.0909090909091" y2="5" style="visibility: inherit;" fill="rgb(0, 0, 0)" stroke="rgb(204, 204, 204)" stroke-width="1px"></line><line x1="254.54545454545453" y1="0" x2="254.54545454545453" y2="5" style="visibility: inherit;" fill="rgb(0, 0, 0)" stroke="rgb(204, 204, 204)" stroke-width="1px"></line><line x1="280" y1="0" x2="280" y2="5" style="visibility: inherit;" fill="rgb(0, 0, 0)" stroke="rgb(204, 204, 204)" stroke-width="1px"></line></g><g transform="translate(0, 8)"><text x="0" y="0" dx="0em" dy="0.95em" style="text-anchor: middle; visibility: hidden; font-family: Roboto, sans-serif; font-size: 12px; font-weight: 200;" fill="rgb(33, 33, 33)" stroke="none" stroke-width="1px">-2</text><text x="25.454545454545457" y="0" dx="0em" dy="0.95em" style="text-anchor: middle; visibility: inherit; font-family: Roboto, sans-serif; font-size: 12px; font-weight: 200;" fill="rgb(33, 33, 33)" stroke="none" stroke-width="1px">0</text><text x="50.909090909090914" y="0" dx="0em" dy="0.95em" style="text-anchor: middle; visibility: inherit; font-family: Roboto, sans-serif; font-size: 12px; font-weight: 200;" fill="rgb(33, 33, 33)" stroke="none" stroke-width="1px">2</text><text x="76.36363636363636" y="0" dx="0em" dy="0.95em" style="text-anchor: middle; visibility: inherit; font-family: Roboto, sans-serif; font-size: 12px; font-weight: 200;" fill="rgb(33, 33, 33)" stroke="none" stroke-width="1px">4</text><text x="101.81818181818183" y="0" dx="0em" dy="0.95em" style="text-anchor: middle; visibility: inherit; font-family: Roboto, sans-serif; font-size: 12px; font-weight: 200;" fill="rgb(33, 33, 33)" stroke="none" stroke-width="1px">6</text><text x="127.27272727272727" y="0" dx="0em" dy="0.95em" style="text-anchor: middle; visibility: inherit; font-family: Roboto, sans-serif; font-size: 12px; font-weight: 200;" fill="rgb(33, 33, 33)" stroke="none" stroke-width="1px">8</text><text x="152.72727272727272" y="0" dx="0em" dy="0.95em" style="text-anchor: middle; visibility: inherit; font-family: Roboto, sans-serif; font-size: 12px; font-weight: 200;" fill="rgb(33, 33, 33)" stroke="none" stroke-width="1px">10</text><text x="178.1818181818182" y="0" dx="0em" dy="0.95em" style="text-anchor: middle; visibility: inherit; font-family: Roboto, sans-serif; font-size: 12px; font-weight: 200;" fill="rgb(33, 33, 33)" stroke="none" stroke-width="1px">12</text><text x="203.63636363636365" y="0" dx="0em" dy="0.95em" style="text-anchor: middle; visibility: inherit; font-family: Roboto, sans-serif; font-size: 12px; font-weight: 200;" fill="rgb(33, 33, 33)" stroke="none" stroke-width="1px">14</text><text x="229.0909090909091" y="0" dx="0em" dy="0.95em" style="text-anchor: middle; visibility: inherit; font-family: Roboto, sans-serif; font-size: 12px; font-weight: 200;" fill="rgb(33, 33, 33)" stroke="none" stroke-width="1px">16</text><text x="254.54545454545453" y="0" dx="0em" dy="0.95em" style="text-anchor: middle; visibility: inherit; font-family: Roboto, sans-serif; font-size: 12px; font-weight: 200;" fill="rgb(33, 33, 33)" stroke="none" stroke-width="1px">18</text><text x="280" y="0" dx="0em" dy="0.95em" style="text-anchor: middle; visibility: hidden; font-family: Roboto, sans-serif; font-size: 12px; font-weight: 200;" fill="rgb(33, 33, 33)" stroke="none" stroke-width="1px">20</text></g><line x1="0" y1="0" x2="280" y2="0" fill="rgb(0, 0, 0)" stroke="rgb(204, 204, 204)" stroke-width="1px"></line></g></g></g></g></svg>