<svg viewBox="0 0 330 200" xmlns="http://www.w3.org/2000/svg"><g><g><g><g><g><line x1="40" y1="177" x2="35" y2="177" style="visibility: inherit;" fill="rgb(0, 0, 0)" stroke="rgb(204, 204, 204)" stroke-width="1px"></line><line x1="40" y1="157.33333333333331" x2="35" y2="157.33333333333331" style="visibility: inherit;" fill="rgb(0, 0, 0)" stroke="rgb(204, 204, 204)" stroke-width="1px"></line><line x1="40" y1="137.66666666666666" x2="35" y2="137.66666666666666" style="visibility: inherit;" fill="rgb(0, 0, 0)" stroke="rgb(204, 204, 204)" stroke-width="1px"></line><line x1="40" y1="118.00000000000001" x2="35" y2="118.00000000000001" style="visibility: inherit;" fill="rgb(0, 0, 0)" stroke="rgb(204, 204, 204)" stroke-width="1px"></line><line x1="40" y1="98.33333333333334" x2="35" y2="98.33333333333334" style="visibility: inherit;" fill="rgb(0, 0, 0)" stroke="rgb(204, 204, 204)" stroke-width="1px"></line><line x1="40" y1="78.66666666666666" x2="35" y2="78.66666666666666" style="visibility: inherit;" fill="rgb(0, 0, 0)" stroke="rgb(204, 204, 204)" stroke-width="1px"></line><line x1="40" y1="59.00000000000001" x2="35" y2="59.00000000000001" style="visibility: inherit;" fill="rgb(0, 0, 0)" stroke="rgb(204, 204, 204)" stroke-width="1px"></line><line x1="40" y1="39.33333333333335" x2="35" y2="39.33333333333335" style="visibility: inherit;" fill="rgb(0, 0, 0)" stroke="rgb(204, 204, 204)" stroke-width="1px"></line><line x1="40" y1="19.666666666666657" x2="35" y2="19.666666666666657" style="visibility: inherit;" fill="rgb(0, 0, 0)" stroke="rgb(204, 204, 204)" stroke-width="1px"></line><line x1="40" y1="0" x2="35" y2="0" style="visibility: inherit;" fill="rgb(0, 0, 0)" stroke="rgb(204, 204, 204)" stroke-width="1px"></line></g><g transform="translate(30, 0)"><text x="0" y="177" dx="0em" dy="0.3em" style="text-anchor: end; visibility: hidden; font-family: Roboto, sans-serif; font-size: 12px; font-weight: 200;" fill="rgb(33, 33, 33)" stroke="none" stroke-width="1px">0</text><text x="0" y="157.33333333333331" dx="0em" dy="0.3em" style="text-anchor: end; visibility: inherit; font-family: Roboto, sans-serif; font-size: 12px; font-weight: 200;" fill="rgb(33, 33, 33)" stroke="none" stroke-width="1px">0.1</text><text x="0" y="137.66666666666666" dx="0em" dy="0.3em" style="text-anchor: end; visibility: hidden; font-family: Roboto, sans-serif; font-size: 12px; font-weight: 200;" fill="rgb(33, 33, 33)" stroke="none" stroke-width="1px">0.2</text><text x="0" y="118.00000000000001" dx="0em" dy="0.3em" style="text-anchor: end; visibility: inherit; font-family: Roboto, sans-serif; font-size: 12px; font-weight: 200;" fill="rgb(33, 33, 33)" stroke="none" stroke-width="1px">0.3</text><text x="0" y="98.33333333333334" dx="0em" dy="0.3em" style="text-anchor: end; visibility: hidden; font-family: Roboto, sans-serif; font-size: 12px; font-weight: 200;" fill="rgb(33, 33, 33)" stroke="none" stroke-width="1px">0.4</text><text x="0" y="78.66666666666666" dx="0em" dy="0.3em" style="text-anchor: end; visibility: inherit; font-family: Roboto, sans-serif; font-size: 12px; font-weight: 200;" fill="rgb(33, 33, 33)" stroke="none" stroke-width="1px">0.5</text><text x="0" y="59.00000000000001" dx="0em" dy="0.3em" style="text-anchor: end; visibility: hidden; font-family: Roboto, sans-serif; font-size: 12px; font-weight: 200;" fill="rgb(33, 33, 33)" stroke="none" stroke-width="1px">0.6</text><text x="0" y="39.33333333333335" dx="0em" dy="0.3em" style="text-anchor: end; visibility: inherit; font-family: Roboto, sans-serif; font-size: 12px; font-weight: 200;" fill="rgb(33, 33, 33)" stroke="none" stroke-width="1px">0.7</text><text x="0" y="19.666666666666657" dx="0em" dy="0.3em" style="text-anchor: end; visibility: hidden; font-family: Roboto, sans-serif; font-size: 12px; font-weight: 200;" fill="rgb(33, 33, 33)" stroke="none" stroke-width="1px">0.8</text><text x="0" y="0" dx="0em" dy="0.3em" style="text-anchor: end; visibility: hidden; font-family: Roboto, sans-serif; font-size: 12px; font-weight: 200;" fill="rgb(33, 33, 33)" stroke="none" stroke-width="1px">0.9</text></g><line x1="40" y1="0" x2="40" y2="177" fill="rgb(0, 0, 0)" stroke="rgb(204, 204, 204)" stroke-width="1px"></line></g></g><g transform="translate(40, 0)" clip-path="url(#clip_0)"><clipPath id="clip_0"><rect width="290" height="177"></rect></clipPath><g><g><g><line x1="0" y1="0" x2="0" y2="177" fill="rgb(0, 0, 0)" stroke="rgb(66, 66, 66)" stroke-width="1px" opacity="0.25"></line><line x1="26.363636363636363" y1="0" x2="26.363636363636363" y2="177" fill="rgb(0, 0, 0)" stroke="rgb(66, 66, 66)" stroke-width="1px" opacity="0.25"></line><line x1="52.72727272727273" y1="0" x2="52.72727272727273" y2="177" fill="rgb(0, 0, 0)" stroke="rgb(66, 66, 66)" stroke-width="1px" opacity="0.25"></line><line x1="79.09090909090908" y1="0" x2="79.09090909090908" y2="177" fill="rgb(0, 0, 0)" stroke="rgb(66, 66, 66)" stroke-width="1px" opacity="0.25"></line><line x1="105.45454545454545" y1="0" x2="105.45454545454545" y2="177" fill="rgb(0, 0, 0)" stroke="rgb(66, 66, 66)" stroke-width="1px" opacity="0.25"></line><line x1="131.8181818181818" y1="0" x2="131.8181818181818" y2="177" fill="rgb(0, 0, 0)" stroke="rgb(66, 66, 66)" stroke-width="1px" opacity="0.25"></line><line x1="158.18181818181816" y1="0" x2="158.18181818181816" y2="177" fill="rgb(0, 0, 0)" stroke="rgb(66, 66, 66)" stroke-width="1px" opacity="0.25"></line><line x1="184.54545454545453" y1="0" x2="184.54545454545453" y2="177" fill="rgb(0, 0, 0)" stroke="rgb(66, 66, 66)" stroke-width="1px" opacity="0.25"></line><line x1="210.9090909090909" y1="0" x2="210.9090909090909" y2="177" fill="rgb(0, 0, 0)" stroke="rgb(66, 66, 66)" stroke-width="1px" opacity="0.25"></line><line x1="237.27272727272728" y1="0" x2="237.27272727272728" y2="177" fill="rgb(0, 0, 0)" stroke="rgb(66, 66, 66)" stroke-width="1px" opacity="0.25"></line><line x1="263.6363636363636" y1="0" x2="263.6363636363636" y2="177" fill="rgb(0, 0, 0)" stroke="rgb(66, 66, 66)" stroke-width="1px" opacity="0.25"></line><line x1="290" y1="0" x2="290" y2="177" fill="rgb(0, 0, 0)" stroke="rgb(66, 66, 66)" stroke-width="1px" opacity="0.25"></line></g><g><line x1="0" y1="177" x2="290" y2="177" fill="rgb(0, 0, 0)" stroke="rgb(66, 66, 66)" stroke-width="1px" opacity="0.25"></line><line x1="0" y1="157.33333333333331" x2="290" y2="157.33333333333331" fill="rgb(0, 0, 0)" stroke="rgb(66, 66, 66)" stroke-width="1px" opacity="0.25"></line><line x1="0" y1="137.66666666666666" x2="290" y2="137.66666666666666" fill="rgb(0, 0, 0)" stroke="rgb(66, 66, 66)" stroke-width="1px" opacity="0.25"></line><line x1="0" y1="118.00000000000001" x2="290" y2="118.00000000000001" fill="rgb(0, 0, 0)" stroke="rgb(66, 66, 66)" stroke-width="1px" opacity="0.25"></line><line x1="0" y1="98.33333333333334" x2="290" y2="98.33333333333334" fill="rgb(0, 0, 0)" stroke="rgb(66, 66, 66)" stroke-width="1px" opacity="0.25"></line><line x1="0" y1="78.66666666666666" x2="290" y2="78.66666666666666" fill="rgb(0, 0, 0)" stroke="rgb(66, 66, 66)" stroke-width="1px" opacity="0.25"></line><line x1="0" y1="59.00000000000001" x2="290" y2="59.00000000000001" fill="rgb(0, 0, 0)" stroke="rgb(66, 66, 66)" stroke-width="1px" opacity="0.25"></line><line x1="0" y1="39.33333333333335" x2="290" y2="39.33333333333335" fill="rgb(0, 0, 0)" stroke="rgb(66, 66, 66)" stroke-width="1px" opacity="0.25"></line><line x1="0" y1="19.666666666666657" x2="290" y2="19.666666666666657" fill="rgb(0, 0, 0)" stroke="rgb(66, 66, 66)" stroke-width="1px" opacity="0.25"></line><line x1="0" y1="0" x2="290" y2="0" fill="rgb(0, 0, 0)" stroke="rgb(66, 66, 66)" stroke-width="1px" opacity="0.25"></line></g></g></g><g><g><line x1="0" y1="177" x2="290" y2="177" fill="rgb(0, 0, 0)" stroke="rgb(153, 153, 153)" stroke-width="1.5px"></line></g></g><g><g><line x1="26.363636363636363" y1="0" x2="26.363636363636363" y2="177" fill="rgb(0, 0, 0)" stroke="rgb(153, 153, 153)" stroke-width="1.5px"></line></g></g><g><g><g><g><g><path stroke="rgb(238, 51, 119)" stroke-width="2px" d="M26.363636363636363,103.23346577088039L39.54545454545454,108.22177998224895L52.72727272727273,110.7104967094603L65.9090909090909,112.67525709413138L79.09090909090908,113.59561727283014L92.27272727272727,114.74328376473628L105.45454545454545,115.7529332945399L118.63636363636364,116.49807180039905L131.8181818181818,117.11494534951414L145,117.25268200190709L158.18181818181816,117.20529951295774L171.36363636363637,117.532511579743L184.54545454545453,116.61604272649379L197.72727272727272,117.49375508838781L210.9090909090909,118.07603128866847L224.0909090909091,117.85932536529442L237.27272727272728,117.60312021475725L250.45454545454547,117.86965618644358L263.6363636363636,117.97907433948143L276.8181818181818,117.20448882612365" style="fill: none;" fill="none"></path></g><g><path stroke="rgb(51, 187, 238)" stroke-width="2px" d="M26.363636363636363,74.156942486763L39.54545454545454,98.15246961514156L52.72727272727273,107.5402608732788L65.9090909090909,112.68454921574278L79.09090909090908,115.93585147348621L92.27272727272727,118.13624143010394L105.45454545454545,119.70236107620501L118.63636363636364,120.97417929856279L131.8181818181818,121.87249064321867L145,122.6503575932306L158.18181818181816,123.2620852830571L171.36363636363637,123.77756770688956L184.54545454545453,124.19522477463485L197.72727272727272,124.58050084972565L210.9090909090909,124.9184162833403L224.0909090909091,125.24158142630448L237.27272727272728,125.52403389477018L250.45454545454547,125.73307654615488L263.6363636363636,125.96215938341155L276.8181818181818,126.12551898675333" style="fill: none;" fill="none"></path></g><g><path stroke="rgb(187, 187, 187)" stroke-width="2px" d="M26.363636363636363,105.90730440616608L39.54545454545454,115.12751822173594L52.72727272727273,120.6977422582049L65.9090909090909,127.59969926855582L79.09090909090908,133.0004988772889L92.27272727272727,137.35600746085822L105.45454545454545,141.07670913367943L118.63636363636364,144.11241804056337L131.8181818181818,146.44705630184535L145,148.50089282420961L158.18181818181816,150.09868253798666L171.36363636363637,151.64052416951733L184.54545454545453,152.52539694252363L197.72727272727272,153.30514740509304L210.9090909090909,153.8730775722127L224.0909090909091,154.0778880765415L237.27272727272728,154.32432720623567L250.45454545454547,154.5694356895442L263.6363636363636,155.34928911780446L276.8181818181818,156.19360052073858" style="fill: none;" fill="none"></path></g><g><path stroke="rgb(0, 153, 136)" stroke-width="2px" d="M26.363636363636363,28.534204085667906L39.54545454545454,83.70474987477064L52.72727272727273,106.24860300458207L65.9090909090909,119.58448383332615L79.09090909090908,128.84425090484643L92.27272727272727,135.6439137789796L105.45454545454545,140.89850152494924L118.63636363636364,145.06202763282764L131.8181818181818,148.43850465939326L145,151.21941882425253L158.18181818181816,153.57006904741854L171.36363636363637,155.54106442901715L184.54545454545453,157.26424169322362L197.72727272727272,158.7634858804196L210.9090909090909,160.14066898117065L224.0909090909091,161.23392219564744L237.27272727272728,162.27327068967145L250.45454545454547,163.23081598007394L263.6363636363636,164.08209841722555L276.8181818181818,164.8537324914737" style="fill: none;" fill="none"></path></g><g><path stroke="rgb(204, 51, 17)" stroke-width="2px" d="M26.363636363636363,71.64068015416464L39.54545454545454,81.99297361820938L52.72727272727273,88.62680428044327L65.9090909090909,93.49346686717053L79.09090909090908,97.13535143468437L92.27272727272727,99.97802281289533L105.45454545454545,102.28633234202242L118.63636363636364,104.09548545231085L131.8181818181818,105.64728663840239L145,106.91061994308149L158.18181818181816,107.96260597585136L171.36363636363637,108.8615142586221L184.54545454545453,109.66146123532262L197.72727272727272,110.33386912211496L210.9090909090909,110.94599800154916L224.0909090909091,111.49802652533721L237.27272727272728,111.97846610843672L250.45454545454547,112.42203914430281L263.6363636363636,112.80395823202247L276.8181818181818,113.1872995509912L26.363636363636363,96.4210197490359L39.54545454545454,93.01687110914148L52.72727272727273,93.80352687675304L65.9090909090909,95.88223607746855L79.09090909090908,98.2301516094966L92.27272727272727,100.46305172416946L105.45454545454545,102.43621802086868L118.63636363636364,104.16555767412282L131.8181818181818,105.60875770868397L145,106.82395353213872L158.18181818181816,107.81905335848077L171.36363636363637,108.75727043464985L184.54545454545453,109.56156405026971L197.72727272727272,110.25971466444639L210.9090909090909,110.85064540612909L224.0909090909091,111.38559750259282L237.27272727272728,111.85702145117422L250.45454545454547,112.2691206233181L263.6363636363636,112.69012961261754L276.8181818181818,113.04616273375233L26.363636363636363,96.24520627660222L39.54545454545454,92.86968490916574L52.72727272727273,93.65313261435053L65.9090909090909,95.80472003071402L79.09090909090908,98.17334082935373L92.27272727272727,100.44721064113327L105.45454545454545,102.46270568264767L118.63636363636364,104.16568278729711L131.8181818181818,105.5937902577501L145,106.86056998856583L158.18181818181816,107.94028943074902L171.36363636363637,108.85688408192162L184.54545454545453,109.66268828695854L197.72727272727272,110.3546415916242L210.9090909090909,110.9781718224981L224.0909090909091,111.51286364221785L237.27272727272728,112.0218512731248L250.45454545454547,112.46782406871249L263.6363636363636,112.8716601095879L276.8181818181818,113.21466521197267L26.363636363636363,96.31633164747727L39.54545454545454,92.87936435300607L52.72727272727273,93.6383067816009L65.9090909090909,95.71942361490986L79.09090909090908,98.10970926461854L92.27272727272727,100.36099393474005L105.45454545454545,102.28946753724583L118.63636363636364,104.0569337788274L131.8181818181818,105.52692787148852L145,106.69853415666998L158.18181818181816,107.78233731535462L171.36363636363637,108.71258397547832L184.54545454545453,109.48939173012037L197.72727272727272,110.19804014715987L210.9090909090909,110.84367777081391L224.0909090909091,111.3946185102387L237.27272727272728,111.86980734608512L250.45454545454547,112.34415287777946L263.6363636363636,112.7379787147353L276.8181818181818,113.10779998582461L26.363636363636363,96.44072968492026L39.54545454545454,93.18228924311667L52.72727272727273,93.96251983664911L65.9090909090909,96.07426020635653L79.09090909090908,98.381334987085L92.27272727272727,100.65946916349785L105.45454545454545,102.64789132838281L118.63636363636364,104.37160605131486L131.8181818181818,105.82633532249272L145,107.05939049619441L158.18181818181816,108.10314863779944L171.36363636363637,108.9680567454823L184.54545454545453,109.6827467206038L197.72727272727272,110.3920811050882L210.9090909090909,111.01109880807499L224.0909090909091,111.52741515598197L237.27272727272728,112.0019048767974L250.45454545454547,112.46613195246599L263.6363636363636,112.87134817464833L276.8181818181818,113.25423522327554" style="fill: none;" fill="none"></path></g><g><path stroke="rgb(0, 119, 187)" stroke-width="2px" d="M26.363636363636363,19.719273765881862L39.54545454545454,60.85796410342058L52.72727272727273,79.05887916947712L65.9090909090909,89.57246419714363L79.09090909090908,96.4377043768126L92.27272727272727,101.22457203499751L105.45454545454545,104.70019996718756L118.63636363636364,107.3248881356921L131.8181818181818,109.34938640296956L145,110.95611143723187L158.18181818181816,112.25735023517424L171.36363636363637,113.34741894271953L184.54545454545453,114.25645491515151L197.72727272727272,115.0266600275304L210.9090909090909,115.70069725291982L224.0909090909091,116.30305277916084L237.27272727272728,116.82730537724917L250.45454545454547,117.2980805928305L263.6363636363636,117.73047758439016L276.8181818181818,118.12759580549606L26.363636363636363,77.95623872651099L39.54545454545454,80.91177536164521L52.72727272727273,87.13148706300643L65.9090909090909,93.04646533746418L79.09090909090908,97.97660498779365L92.27272727272727,101.90776158579436L105.45454545454545,105.00279197294982L118.63636363636364,107.4535989544849L131.8181818181818,109.39919205163424L145,110.97016559792752L158.18181818181816,112.25992733313L171.36363636363637,113.32308230560447L184.54545454545453,114.22667403817478L197.72727272727272,115.00758309098502L210.9090909090909,115.68406944801504L224.0909090909091,116.28401836376362L237.27272727272728,116.81403765581815L250.45454545454547,117.2868438430467L263.6363636363636,117.72256744011992L276.8181818181818,118.12040869510557L26.363636363636363,78.33726922728482L39.54545454545454,81.11627726723093L52.72727272727273,87.2090904946992L65.9090909090909,93.06132117030296L79.09090909090908,97.96324861369189L92.27272727272727,101.88033135948167L105.45454545454545,104.97452636701075L118.63636363636364,107.41589205355288L131.8181818181818,109.36227308647975L145,110.93344077431722L158.18181818181816,112.21775110342867L171.36363636363637,113.29689965911284L184.54545454545453,114.2021211441428L197.72727272727272,114.98131195243701L210.9090909090909,115.66367177687037L224.0909090909091,116.26374063802947L237.27272727272728,116.78745499797589L250.45454545454547,117.26720408329132L263.6363636363636,117.7059680843081L276.8181818181818,118.1006985161936L26.363636363636363,77.93455779875615L39.54545454545454,80.75468259051625L52.72727272727273,86.88419054942447L65.9090909090909,92.78531952101265L79.09090909090908,97.72964452543823L92.27272727272727,101.69340886377674L105.45454545454545,104.82199676257402L118.63636363636364,107.29507805161892L131.8181818181818,109.26567905696164L145,110.86207879514653L158.18181818181816,112.15742556809084L171.36363636363637,113.2390205257656L184.54545454545453,114.15142561953397L197.72727272727272,114.93736247595825L210.9090909090909,115.63350877191631L224.0909090909091,116.23816404159469L237.27272727272728,116.77549676944179L250.45454545454547,117.25072871555507L263.6363636363636,117.68728648966324L276.8181818181818,118.09945346919163L26.363636363636363,78.45924876138048L39.54545454545454,81.17965581022389L52.72727272727273,87.25812246403707L65.9090909090909,93.11332208713857L79.09090909090908,98.02431744814496L92.27272727272727,101.94410731681533L105.45454545454545,105.04410675141226L118.63636363636364,107.49562036378987L131.8181818181818,109.44684759408518L145,111.02702091314565L158.18181818181816,112.31714489963552L171.36363636363637,113.39782403453331L184.54545454545453,114.3083573651958L197.72727272727272,115.08843537604703L210.9090909090909,115.76692464611466L224.0909090909091,116.37499612964115L237.27272727272728,116.89856527485601L250.45454545454547,117.37370009961617L263.6363636363636,117.81006362284953L276.8181818181818,118.20459398177705" style="fill: none;" fill="none"></path></g></g></g></g><g opacity="0.2"><g><g><g><path stroke="rgb(238, 51, 119)" stroke-width="2px" d="M26.363636363636363,103.23346577088039L39.54545454545454,111.21476850907008L52.72727272727273,113.0996647675832L65.9090909090909,114.98581530650458L79.09090909090908,114.79723952213924L92.27272727272727,116.33091968297957L105.45454545454545,117.19674827655156L118.63636363636364,117.5844908952713L131.8181818181818,118.02471401294072L145,117.45720487833023L158.18181818181816,117.13465553522111L171.36363636363637,118.02154900630315L184.54545454545453,115.24433187643686L197.72727272727272,118.80860410133997L210.9090909090909,118.94876114527383L224.0909090909091,117.53441931804021L237.27272727272728,117.21892090638478L250.45454545454547,118.26939247051874L263.6363636363636,118.14318490028383L276.8181818181818,116.0426813562711" style="fill: none;" fill="none"></path></g><g><path stroke="rgb(51, 187, 238)" stroke-width="2px" d="M26.363636363636363,74.156942486763L39.54545454545454,112.54978589216869L52.72727272727273,116.55254048109055L65.9090909090909,118.73423230648041L79.09090909090908,120.18075170119604L92.27272727272727,121.18017288049062L105.45454545454545,121.94193722804387L118.63636363636364,122.82850247621538L131.8181818181818,123.1973253885905L145,123.80539935827254L158.18181818181816,124.17412849267323L171.36363636363637,124.54798611005148L184.54545454545453,124.82034665346147L197.72727272727272,125.15766016642252L210.9090909090909,125.42489222685495L224.0909090909091,125.72610121965408L237.27272727272728,125.94759307305017L250.45454545454547,126.0465874473254L263.6363636363636,126.30574874083202L276.8181818181818,126.37054346005121" style="fill: none;" fill="none"></path></g><g><path stroke="rgb(187, 187, 187)" stroke-width="2px" d="M26.363636363636363,105.90730440616608L39.54545454545454,120.65964651107787L52.72727272727273,126.04515733321507L65.9090909090909,135.7164007127285L79.09090909090908,140.0517828464508L92.27272727272727,143.3812438150247L105.45454545454545,146.39737205704054L118.63636363636364,148.53851076960564L131.8181818181818,149.89019425710043L145,151.55060069759688L158.18181818181816,152.4808752735456L171.36363636363637,153.9448959827423L184.54545454545453,153.84981683890024L197.72727272727272,154.4732454866171L210.9090909090909,154.72430524230003L224.0909090909091,154.384959384799L237.27272727272728,154.69388161599636L250.45454545454547,154.93703618148962L263.6363636363636,156.51895045737427L276.8181818181818,157.45999045173326" style="fill: none;" fill="none"></path></g><g><path stroke="rgb(0, 153, 136)" stroke-width="2px" d="M26.363636363636363,28.534204085667927L39.54545454545454,116.80707734823228L52.72727272727273,127.89070200920105L65.9090909090909,135.26747968792915L79.09090909090908,140.93380279342333L92.27272727272727,145.05029541254044L105.45454545454545,148.41264607508975L118.63636363636364,151.13248866796494L131.8181818181818,153.41815242667994L145,155.34875226020813L158.18181818181816,157.07472415765127L171.36363636363637,158.48683143158755L184.54545454545453,159.8433811167876L197.72727272727272,161.00941498577595L210.9090909090909,162.2048248052597L224.0909090909091,162.87303097049397L237.27272727272728,163.8318536132574L250.45454545454547,164.6668907950322L263.6363636363636,165.35889238864183L276.8181818181818,166.01111307243505" style="fill: none;" fill="none"></path></g><g><path stroke="rgb(204, 51, 17)" stroke-width="2px" d="M26.363636363636363,71.64068015416464L39.54545454545454,88.2043496966362L52.72727272727273,94.99528171618779L65.9090909090909,99.21666206916173L79.09090909090908,101.89019592603047L92.27272727272727,103.9104606906573L105.45454545454545,105.58725190162659L118.63636363636364,106.73324805498123L131.8181818181818,107.93589196602504L145,108.78652266661327L158.18181818181816,109.53104358911516L171.36363636363637,110.20498486359914L184.54545454545453,110.85876973470052L197.72727272727272,111.34116363525392L210.9090909090909,111.86347178618112L224.0909090909091,112.3256799777349L237.27272727272728,112.69892217715581L250.45454545454547,113.08728607495627L263.6363636363636,113.37677868207297L276.8181818181818,113.76227649052939L26.363636363636363,71.27251954873404L39.54545454545454,87.91076016426086L52.72727272727273,94.98349499702454L65.9090909090909,99.00027525424959L79.09090909090908,101.75200821955998L92.27272727272727,103.81239237387976L105.45454545454545,105.39596241712572L118.63636363636364,106.75956449906032L131.8181818181818,107.77355643113455L145,108.64674659570058L158.18181818181816,109.31170276800792L171.36363636363637,110.16459586222966L184.54545454545453,110.768004377683L197.72727272727272,111.3069405357043L210.9090909090909,111.7370414932569L224.0909090909091,112.18802563349406L237.27272727272728,112.56415736675262L250.45454545454547,112.88726937770845L263.6363636363636,113.32164309422174L276.8181818181818,113.58021241426466L26.363636363636363,71.04377162456512L39.54545454545454,87.80640286207199L52.72727272727273,94.8283041715622L65.9090909090909,99.03210115432739L79.09090909090908,101.72627202669779L92.27272727272727,103.85801535844803L105.45454545454545,105.48594824473064L118.63636363636364,106.72014844417573L131.8181818181818,107.73595146338145L145,108.76073958476384L158.18181818181816,109.55986859401067L171.36363636363637,110.23177605867387L184.54545454545453,110.87139459451039L197.72727272727272,111.39257154862085L210.9090909090909,111.91346716880797L224.0909090909091,112.31490137179692L237.27272727272728,112.78533271948496L250.45454545454547,113.13678326209386L263.6363636363636,113.47741417090097L276.8181818181818,113.72917286554973L26.363636363636363,70.96883130073547L39.54545454545454,87.72391341129938L52.72727272727273,94.77672042449316L65.9090909090909,98.84109886487325L79.09090909090908,101.69513773918152L92.27272727272727,103.73792093992235L105.45454545454545,105.18217794100444L118.63636363636364,106.70813314119975L131.8181818181818,107.73191901048024L145,108.45594358444215L158.18181818181816,109.4080420533816L171.36363636363637,110.10795396566391L184.54545454545453,110.65460336208344L197.72727272727272,111.26101277271906L210.9090909090909,111.812134206295L224.0909090909091,112.22102961937587L237.27272727272728,112.58259059985478L250.45454545454547,113.05567117532094L263.6363636363636,113.32871747016907L276.8181818181818,113.6625318924586L26.363636363636363,71.44012423356375L39.54545454545454,88.29462858041128L52.72727272727273,95.13286572694778L65.9090909090909,99.24187076091768L79.09090909090908,101.84194715817769L92.27272727272727,104.07667042811713L105.45454545454545,105.6305245757103L118.63636363636364,106.95717813571294L131.8181818181818,108.00842922925949L145,108.90897325674693L158.18181818181816,109.66878585020702L171.36363636363637,110.26541890700659L184.54545454545453,110.75478168328604L197.72727272727272,111.45608268181482L210.9090909090909,111.93962536255519L224.0909090909091,112.30188967784247L237.27272727272728,112.71363945802052L250.45454545454547,113.16247256596883L263.6363636363636,113.47917250792186L276.8181818181818,113.82856579621632" style="fill: none;" fill="none"></path></g><g><path stroke="rgb(0, 119, 187)" stroke-width="2px" d="M26.363636363636363,19.719273765881862L39.54545454545454,85.54117830594382L52.72727272727273,96.53175763289133L65.9090909090909,101.93644018967947L79.09090909090908,105.4009619553884L92.27272727272727,107.84653327862422L105.45454545454545,109.67040352026622L118.63636363636364,111.15170868237813L131.8181818181818,112.33512810866038L145,113.34191085894903L158.18181818181816,114.19740629196167L171.36363636363637,114.97658989826839L184.54545454545453,115.61704071362813L197.72727272727272,116.18045878410341L210.9090909090909,116.7109607855479L224.0909090909091,117.20616124073663L237.27272727272728,117.6134624282519L250.45454545454547,118.0041238864263L263.6363636363636,118.37900720040003L276.8181818181818,118.72323683897655L26.363636363636363,17.701406200726836L39.54545454545454,85.3449830611547L52.72727272727273,96.46093181769054L65.9090909090909,101.91886268059412L79.09090909090908,105.37177942196527L92.27272727272727,107.80447971820833L105.45454545454545,109.64532963434854L118.63636363636364,111.12980566422145L131.8181818181818,112.31757990519206L145,113.32662504911424L158.18181818181816,114.19456950823466L171.36363636363637,114.91781455278397L184.54545454545453,115.58206152915956L197.72727272727272,116.17894661426543L210.9090909090909,116.69879895448683L224.0909090909091,117.18394172191618L237.27272727272728,117.60906658569971L250.45454545454547,117.99605311950049L263.6363636363636,118.37615283330281L276.8181818181818,118.71717057625453L26.363636363636363,18.6625601053238L39.54545454545454,85.28478932380676L52.72727272727273,96.34831033150355L65.9090909090909,101.83966718117397L79.09090909090908,105.31613977750143L92.27272727272727,107.75595547755559L105.45454545454545,109.61581887801488L118.63636363636364,111.07794058322908L131.8181818181818,112.2818446358045L145,113.2901923060417L158.18181818181816,114.14421659708022L171.36363636363637,114.91562249263127L184.54545454545453,115.55995337168376L197.72727272727272,116.1500981648763L210.9090909090909,116.68721151351929L224.0909090909091,117.1638439297676L237.27272727272728,117.57302653789519L250.45454545454547,117.9868277112643L263.6363636363636,118.36411408583324L276.8181818181818,118.6927941640218L26.363636363636363,17.68534672260286L39.54545454545454,84.98486977815628L52.72727272727273,96.0784524877866L65.9090909090909,101.63701297839482L79.09090909090908,105.14613203207652L92.27272727272727,107.6390553712845L105.45454545454545,109.5148786107699L118.63636363636364,111.00469998518625L131.8181818181818,112.22158056497572L145,113.25667840242387L158.18181818181816,114.10044572750726L171.36363636363637,114.86141296227773L184.54545454545453,115.52003326018651L197.72727272727272,116.11626776059468L210.9090909090909,116.67772821585338L224.0909090909091,117.14514694611232L237.27272727272728,117.58149586121242L250.45454545454547,117.96357663472493L263.6363636363636,118.34212315082549L276.8181818181818,118.71770393848418L26.363636363636363,18.9989416996638L39.54545454545454,85.26026638348898L52.72727272727273,96.37582244475682L65.9090909090909,101.89612152179082L79.09090909090908,105.39081048965454L92.27272727272727,107.82379211982091L105.45454545454545,109.6941059033076L118.63636363636364,111.17289078235628L131.8181818181818,112.37368843952815L145,113.39728089173634L158.18181818181816,114.25233087937038L171.36363636363637,115.01884273687999L184.54545454545453,115.67415736118953L197.72727272727272,116.25855239232381L210.9090909090909,116.78465855121614L224.0909090909091,117.28710335493089L237.27272727272728,117.68391899267831L250.45454545454547,118.08640233675638L263.6363636363636,118.46460890769957L276.8181818181818,118.79638952016832" style="fill: none;" fill="none"></path></g></g></g></g></g></g><g transform="translate(40, 177)" clip-path="url(#clip_1)"><clipPath id="clip_1"><rect width="290" height="23"></rect></clipPath><g><g><line x1="0" y1="0" x2="0" y2="5" style="visibility: inherit;" fill="rgb(0, 0, 0)" stroke="rgb(204, 204, 204)" stroke-width="1px"></line><line x1="26.363636363636363" y1="0" x2="26.363636363636363" y2="5" style="visibility: inherit;" fill="rgb(0, 0, 0)" stroke="rgb(204, 204, 204)" stroke-width="1px"></line><line x1="52.72727272727273" y1="0" x2="52.72727272727273" y2="5" style="visibility: inherit;" fill="rgb(0, 0, 0)" stroke="rgb(204, 204, 204)" stroke-width="1px"></line><line x1="79.09090909090908" y1="0" x2="79.09090909090908" y2="5" style="visibility: inherit;" fill="rgb(0, 0, 0)" stroke="rgb(204, 204, 204)" stroke-width="1px"></line><line x1="105.45454545454545" y1="0" x2="105.45454545454545" y2="5" style="visibility: inherit;" fill="rgb(0, 0, 0)" stroke="rgb(204, 204, 204)" stroke-width="1px"></line><line x1="131.8181818181818" y1="0" x2="131.8181818181818" y2="5" style="visibility: inherit;" fill="rgb(0, 0, 0)" stroke="rgb(204, 204, 204)" stroke-width="1px"></line><line x1="158.18181818181816" y1="0" x2="158.18181818181816" y2="5" style="visibility: inherit;" fill="rgb(0, 0, 0)" stroke="rgb(204, 204, 204)" stroke-width="1px"></line><line x1="184.54545454545453" y1="0" x2="184.54545454545453" y2="5" style="visibility: inherit;" fill="rgb(0, 0, 0)" stroke="rgb(204, 204, 204)" stroke-width="1px"></line><line x1="210.9090909090909" y1="0" x2="210.9090909090909" y2="5" style="visibility: inherit;" fill="rgb(0, 0, 0)" stroke="rgb(204, 204, 204)" stroke-width="1px"></line><line x1="237.27272727272728" y1="0" x2="237.27272727272728" y2="5" style="visibility: inherit;" fill="rgb(0, 0, 0)" stroke="rgb(204, 204, 204)" stroke-width="1px"></line><line x1="263.6363636363636" y1="0" x2="263.6363636363636" y2="5" style="visibility: inherit;" fill="rgb(0, 0, 0)" stroke="rgb(204, 204, 204)" stroke-width="1px"></line><line x1="290" y1="0" x2="290" y2="5" style="visibility: inherit;" fill="rgb(0, 0, 0)" stroke="rgb(204, 204, 204)" stroke-width="1px"></line></g><g transform="translate(0, 8)"><text x="0" y="0" dx="0em" dy="0.95em" style="text-anchor: middle; visibility: hidden; font-family: Roboto, sans-serif; font-size: 12px; font-weight: 200;" fill="rgb(33, 33, 33)" stroke="none" stroke-width="1px">-2</text><text x="26.363636363636363" y="0" dx="0em" dy="0.95em" style="text-anchor: middle; visibility: inherit; font-family: Roboto, sans-serif; font-size: 12px; font-weight: 200;" fill="rgb(33, 33, 33)" stroke="none" stroke-width="1px">0</text><text x="52.72727272727273" y="0" dx="0em" dy="0.95em" style="text-anchor: middle; visibility: inherit; font-family: Roboto, sans-serif; font-size: 12px; font-weight: 200;" fill="rgb(33, 33, 33)" stroke="none" stroke-width="1px">2</text><text x="79.09090909090908" y="0" dx="0em" dy="0.95em" style="text-anchor: middle; visibility: inherit; font-family: Roboto, sans-serif; font-size: 12px; font-weight: 200;" fill="rgb(33, 33, 33)" stroke="none" stroke-width="1px">4</text><text x="105.45454545454545" y="0" dx="0em" dy="0.95em" style="text-anchor: middle; visibility: inherit; font-family: Roboto, sans-serif; font-size: 12px; font-weight: 200;" fill="rgb(33, 33, 33)" stroke="none" stroke-width="1px">6</text><text x="131.8181818181818" y="0" dx="0em" dy="0.95em" style="text-anchor: middle; visibility: inherit; font-family: Roboto, sans-serif; font-size: 12px; font-weight: 200;" fill="rgb(33, 33, 33)" stroke="none" stroke-width="1px">8</text><text x="158.18181818181816" y="0" dx="0em" dy="0.95em" style="text-anchor: middle; visibility: inherit; font-family: Roboto, sans-serif; font-size: 12px; font-weight: 200;" fill="rgb(33, 33, 33)" stroke="none" stroke-width="1px">10</text><text x="184.54545454545453" y="0" dx="0em" dy="0.95em" style="text-anchor: middle; visibility: inherit; font-family: Roboto, sans-serif; font-size: 12px; font-weight: 200;" fill="rgb(33, 33, 33)" stroke="none" stroke-width="1px">12</text><text x="210.9090909090909" y="0" dx="0em" dy="0.95em" style="text-anchor: middle; visibility: inherit; font-family: Roboto, sans-serif; font-size: 12px; font-weight: 200;" fill="rgb(33, 33, 33)" stroke="none" stroke-width="1px">14</text><text x="237.27272727272728" y="0" dx="0em" dy="0.95em" style="text-anchor: middle; visibility: inherit; font-family: Roboto, sans-serif; font-size: 12px; font-weight: 200;" fill="rgb(33, 33, 33)" stroke="none" stroke-width="1px">16</text><text x="263.6363636363636" y="0" dx="0em" dy="0.95em" style="text-anchor: middle; visibility: inherit; font-family: Roboto, sans-serif; font-size: 12px; font-weight: 200;" fill="rgb(33, 33, 33)" stroke="none" stroke-width="1px">18</text><text x="290" y="0" dx="0em" dy="0.95em" style="text-anchor: middle; visibility: hidden; font-family: Roboto, sans-serif; font-size: 12px; font-weight: 200;" fill="rgb(33, 33, 33)" stroke="none" stroke-width="1px">20</text></g><line x1="0" y1="0" x2="290" y2="0" fill="rgb(0, 0, 0)" stroke="rgb(204, 204, 204)" stroke-width="1px"></line></g></g></g></g></svg>