<svg viewBox="0 0 330 200" xmlns="http://www.w3.org/2000/svg"><g><g><g><g><g><line x1="50" y1="177" x2="45" y2="177" style="visibility: inherit;" fill="rgb(0, 0, 0)" stroke="rgb(204, 204, 204)" stroke-width="1px"></line><line x1="50" y1="157.33333333333331" x2="45" y2="157.33333333333331" style="visibility: inherit;" fill="rgb(0, 0, 0)" stroke="rgb(204, 204, 204)" stroke-width="1px"></line><line x1="50" y1="137.66666666666666" x2="45" y2="137.66666666666666" style="visibility: inherit;" fill="rgb(0, 0, 0)" stroke="rgb(204, 204, 204)" stroke-width="1px"></line><line x1="50" y1="118" x2="45" y2="118" style="visibility: inherit;" fill="rgb(0, 0, 0)" stroke="rgb(204, 204, 204)" stroke-width="1px"></line><line x1="50" y1="98.33333333333334" x2="45" y2="98.33333333333334" style="visibility: inherit;" fill="rgb(0, 0, 0)" stroke="rgb(204, 204, 204)" stroke-width="1px"></line><line x1="50" y1="78.66666666666666" x2="45" y2="78.66666666666666" style="visibility: inherit;" fill="rgb(0, 0, 0)" stroke="rgb(204, 204, 204)" stroke-width="1px"></line><line x1="50" y1="59.00000000000001" x2="45" y2="59.00000000000001" style="visibility: inherit;" fill="rgb(0, 0, 0)" stroke="rgb(204, 204, 204)" stroke-width="1px"></line><line x1="50" y1="39.33333333333333" x2="45" y2="39.33333333333333" style="visibility: inherit;" fill="rgb(0, 0, 0)" stroke="rgb(204, 204, 204)" stroke-width="1px"></line><line x1="50" y1="19.666666666666657" x2="45" y2="19.666666666666657" style="visibility: inherit;" fill="rgb(0, 0, 0)" stroke="rgb(204, 204, 204)" stroke-width="1px"></line><line x1="50" y1="0" x2="45" y2="0" style="visibility: inherit;" fill="rgb(0, 0, 0)" stroke="rgb(204, 204, 204)" stroke-width="1px"></line></g><g transform="translate(40, 0)"><text x="0" y="177" dx="0em" dy="0.3em" style="text-anchor: end; visibility: hidden; font-family: Roboto, sans-serif; font-size: 12px; font-weight: 200;" fill="rgb(33, 33, 33)" stroke="none" stroke-width="1px">0.05</text><text x="0" y="157.33333333333331" dx="0em" dy="0.3em" style="text-anchor: end; visibility: inherit; font-family: Roboto, sans-serif; font-size: 12px; font-weight: 200;" fill="rgb(33, 33, 33)" stroke="none" stroke-width="1px">0.1</text><text x="0" y="137.66666666666666" dx="0em" dy="0.3em" style="text-anchor: end; visibility: hidden; font-family: Roboto, sans-serif; font-size: 12px; font-weight: 200;" fill="rgb(33, 33, 33)" stroke="none" stroke-width="1px">0.15</text><text x="0" y="118" dx="0em" dy="0.3em" style="text-anchor: end; visibility: inherit; font-family: Roboto, sans-serif; font-size: 12px; font-weight: 200;" fill="rgb(33, 33, 33)" stroke="none" stroke-width="1px">0.2</text><text x="0" y="98.33333333333334" dx="0em" dy="0.3em" style="text-anchor: end; visibility: hidden; font-family: Roboto, sans-serif; font-size: 12px; font-weight: 200;" fill="rgb(33, 33, 33)" stroke="none" stroke-width="1px">0.25</text><text x="0" y="78.66666666666666" dx="0em" dy="0.3em" style="text-anchor: end; visibility: inherit; font-family: Roboto, sans-serif; font-size: 12px; font-weight: 200;" fill="rgb(33, 33, 33)" stroke="none" stroke-width="1px">0.3</text><text x="0" y="59.00000000000001" dx="0em" dy="0.3em" style="text-anchor: end; visibility: hidden; font-family: Roboto, sans-serif; font-size: 12px; font-weight: 200;" fill="rgb(33, 33, 33)" stroke="none" stroke-width="1px">0.35</text><text x="0" y="39.33333333333333" dx="0em" dy="0.3em" style="text-anchor: end; visibility: inherit; font-family: Roboto, sans-serif; font-size: 12px; font-weight: 200;" fill="rgb(33, 33, 33)" stroke="none" stroke-width="1px">0.4</text><text x="0" y="19.666666666666657" dx="0em" dy="0.3em" style="text-anchor: end; visibility: hidden; font-family: Roboto, sans-serif; font-size: 12px; font-weight: 200;" fill="rgb(33, 33, 33)" stroke="none" stroke-width="1px">0.45</text><text x="0" y="0" dx="0em" dy="0.3em" style="text-anchor: end; visibility: hidden; font-family: Roboto, sans-serif; font-size: 12px; font-weight: 200;" fill="rgb(33, 33, 33)" stroke="none" stroke-width="1px">0.5</text></g><line x1="50" y1="0" x2="50" y2="177" fill="rgb(0, 0, 0)" stroke="rgb(204, 204, 204)" stroke-width="1px"></line></g></g><g transform="translate(50, 0)" clip-path="url(#clip_0)"><clipPath id="clip_0"><rect width="280" height="177"></rect></clipPath><g><g><g><line x1="0" y1="0" x2="0" y2="177" fill="rgb(0, 0, 0)" stroke="rgb(66, 66, 66)" stroke-width="1px" opacity="0.25"></line><line x1="25.454545454545457" y1="0" x2="25.454545454545457" y2="177" fill="rgb(0, 0, 0)" stroke="rgb(66, 66, 66)" stroke-width="1px" opacity="0.25"></line><line x1="50.909090909090914" y1="0" x2="50.909090909090914" y2="177" fill="rgb(0, 0, 0)" stroke="rgb(66, 66, 66)" stroke-width="1px" opacity="0.25"></line><line x1="76.36363636363636" y1="0" x2="76.36363636363636" y2="177" fill="rgb(0, 0, 0)" stroke="rgb(66, 66, 66)" stroke-width="1px" opacity="0.25"></line><line x1="101.81818181818183" y1="0" x2="101.81818181818183" y2="177" fill="rgb(0, 0, 0)" stroke="rgb(66, 66, 66)" stroke-width="1px" opacity="0.25"></line><line x1="127.27272727272727" y1="0" x2="127.27272727272727" y2="177" fill="rgb(0, 0, 0)" stroke="rgb(66, 66, 66)" stroke-width="1px" opacity="0.25"></line><line x1="152.72727272727272" y1="0" x2="152.72727272727272" y2="177" fill="rgb(0, 0, 0)" stroke="rgb(66, 66, 66)" stroke-width="1px" opacity="0.25"></line><line x1="178.1818181818182" y1="0" x2="178.1818181818182" y2="177" fill="rgb(0, 0, 0)" stroke="rgb(66, 66, 66)" stroke-width="1px" opacity="0.25"></line><line x1="203.63636363636365" y1="0" x2="203.63636363636365" y2="177" fill="rgb(0, 0, 0)" stroke="rgb(66, 66, 66)" stroke-width="1px" opacity="0.25"></line><line x1="229.0909090909091" y1="0" x2="229.0909090909091" y2="177" fill="rgb(0, 0, 0)" stroke="rgb(66, 66, 66)" stroke-width="1px" opacity="0.25"></line><line x1="254.54545454545453" y1="0" x2="254.54545454545453" y2="177" fill="rgb(0, 0, 0)" stroke="rgb(66, 66, 66)" stroke-width="1px" opacity="0.25"></line><line x1="280" y1="0" x2="280" y2="177" fill="rgb(0, 0, 0)" stroke="rgb(66, 66, 66)" stroke-width="1px" opacity="0.25"></line></g><g><line x1="0" y1="177" x2="280" y2="177" fill="rgb(0, 0, 0)" stroke="rgb(66, 66, 66)" stroke-width="1px" opacity="0.25"></line><line x1="0" y1="157.33333333333331" x2="280" y2="157.33333333333331" fill="rgb(0, 0, 0)" stroke="rgb(66, 66, 66)" stroke-width="1px" opacity="0.25"></line><line x1="0" y1="137.66666666666666" x2="280" y2="137.66666666666666" fill="rgb(0, 0, 0)" stroke="rgb(66, 66, 66)" stroke-width="1px" opacity="0.25"></line><line x1="0" y1="118" x2="280" y2="118" fill="rgb(0, 0, 0)" stroke="rgb(66, 66, 66)" stroke-width="1px" opacity="0.25"></line><line x1="0" y1="98.33333333333334" x2="280" y2="98.33333333333334" fill="rgb(0, 0, 0)" stroke="rgb(66, 66, 66)" stroke-width="1px" opacity="0.25"></line><line x1="0" y1="78.66666666666666" x2="280" y2="78.66666666666666" fill="rgb(0, 0, 0)" stroke="rgb(66, 66, 66)" stroke-width="1px" opacity="0.25"></line><line x1="0" y1="59.00000000000001" x2="280" y2="59.00000000000001" fill="rgb(0, 0, 0)" stroke="rgb(66, 66, 66)" stroke-width="1px" opacity="0.25"></line><line x1="0" y1="39.33333333333333" x2="280" y2="39.33333333333333" fill="rgb(0, 0, 0)" stroke="rgb(66, 66, 66)" stroke-width="1px" opacity="0.25"></line><line x1="0" y1="19.666666666666657" x2="280" y2="19.666666666666657" fill="rgb(0, 0, 0)" stroke="rgb(66, 66, 66)" stroke-width="1px" opacity="0.25"></line><line x1="0" y1="0" x2="280" y2="0" fill="rgb(0, 0, 0)" stroke="rgb(66, 66, 66)" stroke-width="1px" opacity="0.25"></line></g></g></g><g><g><line x1="0" y1="196.66666666666669" x2="280" y2="196.66666666666669" fill="rgb(0, 0, 0)" stroke="rgb(153, 153, 153)" stroke-width="1.5px"></line></g></g><g><g><line x1="25.454545454545457" y1="0" x2="25.454545454545457" y2="177" fill="rgb(0, 0, 0)" stroke="rgb(153, 153, 153)" stroke-width="1.5px"></line></g></g><g><g><g><g><g><path stroke="rgb(238, 51, 119)" stroke-width="2px" d="M25.454545454545457,49.133598208427436L38.18181818181818,59.11022663116456L50.909090909090914,64.08766008558726L63.63636363636363,68.01718085492942L76.36363636363636,69.85790121232694L89.0909090909091,72.15323419613925L101.81818181818183,74.17253325574652L114.54545454545455,75.66281026746476L127.27272727272727,76.89655736569495L140,77.17203067048086L152.72727272727272,77.07726569258213L165.45454545454547,77.73168982615265L178.1818181818182,75.89875211965425L190.9090909090909,77.65417684344231L203.63636363636365,78.81872924400362L216.36363636363635,78.38531739725552L229.0909090909091,77.87290709618117L241.8181818181818,78.40597903955384L254.54545454545453,78.62481534562949L267.2727272727273,77.075644318914" style="fill: none;" fill="none"></path></g><g><path stroke="rgb(51, 187, 238)" stroke-width="2px" d="M25.454545454545457,-9.019448359807349L38.18181818181818,38.971605896949775L50.909090909090914,57.74718841322428L63.63636363636363,68.0357650981522L76.36363636363636,74.53836961363908L89.0909090909091,78.93914952687452L101.81818181818183,82.07138881907667L114.54545454545455,84.61502526379225L127.27272727272727,86.411647953104L140,87.9673818531279L152.72727272727272,89.19083723278085L165.45454545454547,90.2218020804458L178.1818181818182,91.05711621593636L190.9090909090909,91.82766836611795L203.63636363636365,92.50349923334728L216.36363636363635,93.1498295192756L229.0909090909091,93.71473445620703L241.8181818181818,94.13281975897644L254.54545454545453,94.59098543348975L267.2727272727273,94.91770464017333" style="fill: none;" fill="none"></path></g><g><path stroke="rgb(187, 187, 187)" stroke-width="2px" d="M25.454545454545457,54.48127547899881L38.18181818181818,72.92170311013855L50.909090909090914,84.06215118307645L63.63636363636363,97.86606520377833L76.36363636363636,108.66766442124447L89.0909090909091,117.37868158838312L101.81818181818183,124.82008493402556L114.54545454545455,130.8915027477934L127.27272727272727,135.5607792703574L140,139.6684523150859L152.72727272727272,142.86403174263998L165.45454545454547,145.94771500570135L178.1818181818182,147.71746055171394L190.9090909090909,149.27696147685276L203.63636363636365,150.4128218110921L216.36363636363635,150.8224428197497L229.0909090909091,151.31532107913802L241.8181818181818,151.80553804575507L254.54545454545453,153.36524490227558L267.2727272727273,155.05386770814385" style="fill: none;" fill="none"></path></g><g><path stroke="rgb(0, 153, 136)" stroke-width="2px" d="M25.454545454545457,-100.26492516199751L38.18181818181818,10.076166416207919L50.909090909090914,55.16387267583082L63.63636363636363,81.83563433331895L76.36363636363636,100.35516847635952L89.0909090909091,113.95449422462582L101.81818181818183,124.46366971656515L114.54545454545455,132.79072193232193L127.27272727272727,139.54367598545318L140,145.10550431517174L152.72727272727272,149.8068047615037L165.45454545454547,153.74879552470094L178.1818181818182,157.19515005311393L190.9090909090909,160.1936384275059L203.63636363636365,162.94800462900795L216.36363636363635,165.13451105796156L229.0909090909091,167.21320804600958L241.8181818181818,169.12829862681457L254.54545454545453,170.8308635011178L267.2727272727273,172.37413164961404" style="fill: none;" fill="none"></path></g><g><path stroke="rgb(204, 51, 17)" stroke-width="2px" d="M25.454545454545457,-14.051973025004052L38.18181818181818,6.652613903085406L50.909090909090914,19.920275227553194L63.63636363636363,29.653600401007676L76.36363636363636,36.93736953603541L89.0909090909091,42.62271229245736L101.81818181818183,47.239331350711495L114.54545454545455,50.85763757128837L127.27272727272727,53.96123994347147L140,56.48790655282963L152.72727272727272,58.59187861836941L165.45454545454547,60.38969518391084L178.1818181818182,61.98958913731191L190.9090909090909,63.334404910896545L203.63636363636365,64.55866266976498L216.36363636363635,65.66271971734106L229.0909090909091,66.62359888354011L241.8181818181818,67.51074495527233L254.54545454545453,68.2745831307116L267.2727272727273,69.04126576864908L25.454545454545457,35.50870616473847L38.18181818181818,28.70040888494962L50.909090909090914,30.273720420172758L63.63636363636363,34.43113882160376L76.36363636363636,39.12696988565986L89.0909090909091,43.592770115005585L101.81818181818183,47.53910270840399L114.54545454545455,50.997782014912275L127.27272727272727,53.884182084034606L140,56.3145737309441L152.72727272727272,58.30477338362821L165.45454545454547,60.181207535966344L178.1818181818182,61.78979476720609L190.9090909090909,63.18609599555944L203.63636363636365,64.36795747892486L216.36363636363635,65.43786167185226L229.0909090909091,66.38070956901508L241.8181818181818,67.20490791330286L254.54545454545453,68.04692589190174L267.2727272727273,68.75899213417132L25.454545454545457,35.15707921987112L38.18181818181818,28.406036484998136L50.909090909090914,29.97293189536773L63.63636363636363,34.276106728094696L76.36363636363636,39.013348325374125L89.0909090909091,43.56108794893321L101.81818181818183,47.59207803196196L114.54545454545455,50.99803224126088L127.27272727272727,53.85424718216686L140,56.38780664379832L152.72727272727272,58.54724552816468L165.45454545454547,60.380434830509905L178.1818181818182,61.99204324058375L190.9090909090909,63.37594984991504L203.63636363636365,64.62301031166285L216.36363636363635,65.69239395110233L229.0909090909091,66.71036921291626L241.8181818181818,67.60231480409163L254.54545454545453,68.4099868858425L267.2727272727273,69.09599709061202L25.454545454545457,35.29932996162124L38.18181818181818,28.4253953726788L50.909090909090914,29.943280229868467L63.63636363636363,34.10551389648639L76.36363636363636,38.88608519590373L89.0909090909091,43.38865453614679L101.81818181818183,47.2456017411583L114.54545454545455,50.78053422432145L127.27272727272727,53.72052240964373L140,56.0637349800066L152.72727272727272,58.23134129737591L165.45454545454547,60.09183461762331L178.1818181818182,61.6454501269074L190.9090909090909,63.06274696098639L203.63636363636365,64.35402220829451L216.36363636363635,65.45590368714406L229.0909090909091,66.40628135883692L241.8181818181818,67.35497242222557L254.54545454545453,68.14262409613725L267.2727272727273,68.88226663831588L25.454545454545457,35.5481260365072L38.18181818181818,29.03124515290002L50.909090909090914,30.591706339964883L63.63636363636363,34.815187079379726L76.36363636363636,39.429336640836645L89.0909090909091,43.98560499366233L101.81818181818183,47.96244932343229L114.54545454545455,51.409878769296384L127.27272727272727,54.3193373116521L140,56.78544765905547L152.72727272727272,58.87296394226556L165.45454545454547,60.602780157631244L178.1818181818182,62.03216010787425L190.9090909090909,63.450828876843055L203.63636363636365,64.68886428281665L216.36363636363635,65.72149697863061L229.0909090909091,66.67047642026145L241.8181818181818,67.59893057159861L254.54545454545453,68.40936301596331L267.2727272727273,69.17513711321773" style="fill: none;" fill="none"></path></g><g><path stroke="rgb(0, 119, 187)" stroke-width="2px" d="M38.18181818181818,-35.617405126492166L50.909090909090914,0.7844250056208755L63.63636363636363,21.811595060953948L76.36363636363636,35.54207542029187L89.0909090909091,45.11581073666168L101.81818181818183,52.06706660104179L114.54545454545455,57.31644293805086L127.27272727272727,61.36543947260577L140,64.57888954113038L152.72727272727272,67.18136713701516L165.45454545454547,69.36150455210569L178.1818181818182,71.17957649696967L190.9090909090909,72.71998672172748L203.63636363636365,74.06806117250633L216.36363636363635,75.27277222498834L229.0909090909091,76.32127742116501L241.8181818181818,77.26282785232767L254.54545454545453,78.12762183544697L267.2727272727273,78.9218582776588L25.454545454545457,-1.4208558803113762L38.18181818181818,4.490217389957108L50.909090909090914,16.92964079267955L63.63636363636363,28.759597341595033L76.36363636363636,38.619876642253956L89.0909090909091,46.48218983825543L101.81818181818183,52.67225061256635L114.54545454545455,57.573864575636456L127.27272727272727,61.46505076993516L140,64.6069978625217L152.72727272727272,67.18652133292665L165.45454545454547,69.31283127787562L178.1818181818182,71.12001474301623L190.9090909090909,72.6818328486367L203.63636363636365,74.03480556269672L216.36363636363635,75.23470339419391L229.0909090909091,76.29474197830298L241.8181818181818,77.24035435276008L254.54545454545453,78.11180154690649L267.2727272727273,78.90748405687779L25.454545454545457,-0.6587948787636884L38.18181818181818,4.89922120112852L50.909090909090914,17.08484765606505L63.63636363636363,28.78930900727259L76.36363636363636,38.59316389405044L89.0909090909091,46.42732938563L101.81818181818183,52.61571940068813L114.54545454545455,57.498450773772426L127.27272727272727,61.39121283962617L140,64.53354821530114L152.72727272727272,67.10216887352398L165.45454545454547,69.26046598489236L178.1818181818182,71.07090895495224L190.9090909090909,72.62929057154068L203.63636363636365,73.99401022040738L216.36363636363635,75.1941479427256L229.0909090909091,76.24157666261844L241.8181818181818,77.2010748332493L254.54545454545453,78.07860283528288L267.2727272727273,78.86806369905388L25.454545454545457,-1.4642177358210364L38.18181818181818,4.176031847699175L50.909090909090914,16.43504776551558L63.63636363636363,28.237305708691952L76.36363636363636,38.12595571754313L89.0909090909091,46.053484394220135L101.81818181818183,52.31066019181468L114.54545454545455,57.256822769904495L127.27272727272727,61.198024780589954L140,64.39082425695973L152.72727272727272,66.98151780284832L165.45454545454547,69.14470771819784L178.1818181818182,70.96951790573458L190.9090909090909,72.54139161858316L203.63636363636365,73.93368421049927L216.36363636363635,75.14299474985606L229.0909090909091,76.21766020555025L241.8181818181818,77.16812409777677L254.54545454545453,78.04123964599313L267.2727272727273,78.86557360504989L25.454545454545457,-0.4148358105723531L38.18181818181818,5.025978287114421L50.909090909090914,17.182911594740798L63.63636363636363,28.893310840943798L76.36363636363636,38.71530156295657L89.0909090909091,46.554881300297346L101.81818181818183,52.75488016949115L114.54545454545455,57.657907394246386L127.27272727272727,61.56036185483702L140,64.72070849295794L152.72727272727272,67.30095646593773L165.45454545454547,69.4623147357333L178.1818181818182,71.28338139705828L190.9090909090909,72.84353741876069L203.63636363636365,74.20051595889596L216.36363636363635,75.41665892594895L229.0909090909091,76.4637972163787L241.8181818181818,77.41406686589899L254.54545454545453,78.28679391236572L267.2727272727273,79.07585463022075" style="fill: none;" fill="none"></path></g></g></g></g><g opacity="0.2"><g><g><g><path stroke="rgb(238, 51, 119)" stroke-width="2px" d="M25.454545454545457,49.133598208427436L38.18181818181818,65.09620368480682L50.909090909090914,68.86599620183308L63.63636363636363,72.6382972796758L76.36363636363636,72.26114571094513L89.0909090909091,75.32850603262584L101.81818181818183,77.0601632197698L114.54545454545455,77.83564845720926L127.27272727272727,78.71609469254813L140,77.58107642332712L152.72727272727272,76.93597773710886L165.45454545454547,78.70976467927298L178.1818181818182,73.1553304195404L190.9090909090909,80.28387486934662L203.63636363636365,80.56418895721436L216.36363636363635,77.73550530274709L229.0909090909091,77.10450847943623L241.8181818181818,79.20545160770416L254.54545454545453,78.95303646723428L267.2727272727273,74.75202937920889" style="fill: none;" fill="none"></path></g><g><path stroke="rgb(51, 187, 238)" stroke-width="2px" d="M25.454545454545457,-9.019448359807349L38.18181818181818,67.76623845100403L50.909090909090914,75.77174762884775L63.63636363636363,80.13513127962747L76.36363636363636,83.02817006905873L89.0909090909091,85.02701242764792L101.81818181818183,86.55054112275442L114.54545454545455,88.32367161909738L127.27272727272727,89.06131744384764L140,90.27746538321178L152.72727272727272,91.01492365201314L165.45454545454547,91.76263888676961L178.1818181818182,92.30735997358957L190.9090909090909,92.98198699951172L203.63636363636365,93.51645112037659L216.36363636363635,94.11886910597484L229.0909090909091,94.56185281276703L241.8181818181818,94.75984156131744L254.54545454545453,95.27816414833069L267.2727272727273,95.4077535867691" style="fill: none;" fill="none"></path></g><g><path stroke="rgb(187, 187, 187)" stroke-width="2px" d="M25.454545454545457,54.48127547899881L38.18181818181818,83.98595968882243L50.909090909090914,94.75698133309683L63.63636363636363,114.09946809212364L76.36363636363636,122.77023235956827L89.0909090909091,129.42915429671606L101.81818181818183,135.46141078074774L114.54545454545455,139.74368820587793L127.27272727272727,142.44705518086752L140,145.7678680618604L152.72727272727272,147.62841721375784L165.45454545454547,150.55645863215128L178.1818181818182,150.36630034446716L190.9090909090909,151.61315763990083L203.63636363636365,152.11527715126672L216.36363636363635,151.4365854362647L229.0909090909091,152.05442989865938L241.8181818181818,152.54073902964592L254.54545454545453,155.70456758141518L267.2727272727273,157.5866475701332" style="fill: none;" fill="none"></path></g><g><path stroke="rgb(0, 153, 136)" stroke-width="2px" d="M25.454545454545457,-100.26492516199744L38.18181818181818,76.2808213631312L50.909090909090914,98.44807068506877L63.63636363636363,113.20162604252496L76.36363636363636,124.53427225351334L89.0909090909091,132.76725749174753L101.81818181818183,139.4919588168462L114.54545454545455,144.93164400259653L127.27272727272727,149.50297152002653L140,153.36417118708292L152.72727272727272,156.8161149819692L165.45454545454547,159.64032952984175L178.1818181818182,162.35342890024185L190.9090909090909,164.68549663821855L203.63636363636365,167.07631627718607L216.36363636363635,168.41272860765457L229.0909090909091,170.33037389318147L241.8181818181818,172.00044825673103L254.54545454545453,173.38445144395033L267.2727272727273,174.6888928115368" style="fill: none;" fill="none"></path></g><g><path stroke="rgb(204, 51, 17)" stroke-width="2px" d="M25.454545454545457,-14.051973025004052L38.18181818181818,19.075366059939068L50.909090909090914,32.65723009904226L63.63636363636363,41.099990804990135L76.36363636363636,46.44705851872762L89.0909090909091,50.48758804798127L101.81818181818183,53.841170469919845L114.54545454545455,56.133162776629135L127.27272727272727,58.53845059871673L140,60.239711999893196L152.72727272727272,61.72875384489695L165.45454545454547,63.07663639386495L178.1818181818182,64.38420613606772L190.9090909090909,65.34899393717447L203.63636363636365,66.39361023902893L216.36363636363635,67.31802662213643L229.0909090909091,68.06451102097829L241.8181818181818,68.84123881657918L254.54545454545453,69.42022403081258L267.2727272727273,70.19121964772542L25.454545454545457,-14.788294235865283L38.18181818181818,18.488186995188403L50.909090909090914,32.63365666071575L63.63636363636363,40.66721717516581L76.36363636363636,46.17068310578663L89.0909090909091,50.29145141442616L101.81818181818183,53.45859150091807L114.54545454545455,56.185795664787285L127.27272727272727,58.213779528935746L140,59.96015985806783L152.72727272727272,61.2900722026825L165.45454545454547,62.995858391125985L178.1818181818182,64.20267542203267L190.9090909090909,65.28054773807526L203.63636363636365,66.14074965318044L216.36363636363635,67.04271793365479L229.0909090909091,67.7949814001719L241.8181818181818,68.44120542208353L254.54545454545453,69.30995285511017L267.2727272727273,69.82709149519603L25.454545454545457,-15.245790084203088L38.18181818181818,18.27947239081065L50.909090909090914,32.32327500979107L63.63636363636363,40.73086897532146L76.36363636363636,46.119210720062256L89.0909090909091,50.382697383562714L101.81818181818183,53.63856315612794L114.54545454545455,56.106963555018105L127.27272727272727,58.13856959342957L140,60.18814583619436L152.72727272727272,61.786403854688L165.45454545454547,63.13021878401438L178.1818181818182,64.40945585568745L190.9090909090909,65.45180976390839L203.63636363636365,66.49360100428264L216.36363636363635,67.29646941026051L229.0909090909091,68.2373321056366L241.8181818181818,68.9402331908544L254.54545454545453,69.62149500846863L267.2727272727273,70.12501239776611L25.454545454545457,-15.395670731862403L38.18181818181818,18.114493489265442L50.909090909090914,32.22010751565297L63.63636363636363,40.348864396413155L76.36363636363636,46.05694214502971L89.0909090909091,50.14250854651133L101.81818181818183,53.03102254867553L114.54545454545455,56.082932949066155L127.27272727272727,58.130504687627145L140,59.57855383555094L152.72727272727272,61.48275077342986L165.45454545454547,62.88257459799448L178.1818181818182,63.97587339083353L190.9090909090909,65.1886922121048L203.63636363636365,66.2909350792567L216.36363636363635,67.1087259054184L229.0909090909091,67.83184786637625L241.8181818181818,68.77800901730855L254.54545454545453,69.32410160700479L267.2727272727273,69.99173045158386L25.454545454545457,-14.453084866205835L38.18181818181818,19.255923827489216L50.909090909090914,32.93239812056224L63.63636363636363,41.15040818850199L76.36363636363636,46.35056098302204L89.0909090909091,50.820007522900895L101.81818181818183,53.92771581808725L114.54545454545455,56.58102293809254L127.27272727272727,58.68352512518565L140,60.484613180160515L152.72727272727272,62.00423836708068L165.45454545454547,63.197504480679825L178.1818181818182,64.17623003323872L190.9090909090909,65.57883203029633L203.63636363636365,66.54591739177704L216.36363636363635,67.27044602235158L229.0909090909091,68.09394558270772L241.8181818181818,68.99161179860434L254.54545454545453,69.62501168251038L267.2727272727273,70.32379825909932" style="fill: none;" fill="none"></path></g><g><path stroke="rgb(0, 119, 187)" stroke-width="2px" d="M25.454545454545457,-117.8947858015696L38.18181818181818,13.749023278554278L50.909090909090914,35.73018193244934L63.63636363636363,46.53954704602559L76.36363636363636,53.468590577443436L89.0909090909091,58.35973322391509L101.81818181818183,62.007473707199104L114.54545454545455,64.97008403142293L127.27272727272727,67.33692288398743L140,69.35048838456471L152.72727272727272,71.06147925059L165.45454545454547,72.61984646320343L178.1818181818182,73.90074809392294L190.9090909090909,75.02758423487344L203.63636363636365,76.08858823776245L216.36363636363635,77.07898914813995L229.0909090909091,77.89359152317047L241.8181818181818,78.67491443951924L254.54545454545453,79.42468106746674L267.2727272727273,80.11314034461975L25.454545454545457,-121.93052093187966L38.18181818181818,13.356632788976025L50.909090909090914,35.58853030204774L63.63636363636363,46.50439202785492L76.36363636363636,53.41022551059723L89.0909090909091,58.27562610308329L101.81818181818183,61.95732593536377L114.54545454545455,64.92627799510956L127.27272727272727,67.30182647705078L140,69.31991676489511L152.72727272727272,71.05580568313599L165.45454545454547,72.50229577223459L178.1818181818182,73.83078972498575L190.9090909090909,75.02455989519756L203.63636363636365,76.06426457564037L216.36363636363635,77.03455011049907L229.0909090909091,77.8847998380661L241.8181818181818,78.65877290566762L254.54545454545453,79.4189723332723L267.2727272727273,80.10100781917572L25.454545454545457,-120.00821312268573L38.18181818181818,13.236245314280195L50.909090909090914,35.363287329673774L63.63636363636363,46.34600102901458L76.36363636363636,53.29894622166951L89.0909090909091,58.178577621777855L101.81818181818183,61.898304422696434L114.54545454545455,64.82254783312479L127.27272727272727,67.23035593827565L140,69.2470512787501L152.72727272727272,70.95509986082713L165.45454545454547,72.49791165192923L178.1818181818182,73.78657341003418L190.9090909090909,74.96686299641927L203.63636363636365,76.04108969370523L216.36363636363635,76.99435452620189L229.0909090909091,77.81271974245708L241.8181818181818,78.64032208919525L254.54545454545453,79.39489483833313L267.2727272727273,80.0522549947103L25.454545454545457,-121.96263988812761L38.18181818181818,12.636406222979236L50.909090909090914,34.82357164223989L63.63636363636363,45.94069262345631L76.36363636363636,52.95893073081971L89.0909090909091,57.944777409235634L101.81818181818183,61.69642388820648L114.54545454545455,64.67606663703918L127.27272727272727,67.10982779661815L140,69.18002347151437L152.72727272727272,70.86755812168121L165.45454545454547,72.38949259122212L178.1818181818182,73.7067331870397L190.9090909090909,74.89920218785605L203.63636363636365,76.02212309837341L216.36363636363635,76.9569605588913L229.0909090909091,77.82965838909149L241.8181818181818,78.59381993611655L254.54545454545453,79.35091296831767L267.2727272727273,80.10207454363506L25.454545454545457,-119.33544993400572L38.18181818181818,13.187199433644604L50.909090909090914,35.418311556180306L63.63636363636363,46.4589097102483L76.36363636363636,53.44828764597575L89.0909090909091,58.314250906308494L101.81818181818183,62.05487847328185L114.54545454545455,65.01244823137918L127.27272727272727,67.41404354572296L140,69.46122845013936L152.72727272727272,71.17132842540741L165.45454545454547,72.70435214042664L178.1818181818182,74.01498138904572L190.9090909090909,75.18377145131429L203.63636363636365,76.23598376909891L216.36363636363635,77.24087337652841L229.0909090909091,78.03450465202332L241.8181818181818,78.83947134017944L254.54545454545453,79.59588448206584L267.2727272727273,80.25944570700327" style="fill: none;" fill="none"></path></g></g></g></g></g></g><g transform="translate(50, 177)" clip-path="url(#clip_1)"><clipPath id="clip_1"><rect width="280" height="23"></rect></clipPath><g><g><line x1="0" y1="0" x2="0" y2="5" style="visibility: inherit;" fill="rgb(0, 0, 0)" stroke="rgb(204, 204, 204)" stroke-width="1px"></line><line x1="25.454545454545457" y1="0" x2="25.454545454545457" y2="5" style="visibility: inherit;" fill="rgb(0, 0, 0)" stroke="rgb(204, 204, 204)" stroke-width="1px"></line><line x1="50.909090909090914" y1="0" x2="50.909090909090914" y2="5" style="visibility: inherit;" fill="rgb(0, 0, 0)" stroke="rgb(204, 204, 204)" stroke-width="1px"></line><line x1="76.36363636363636" y1="0" x2="76.36363636363636" y2="5" style="visibility: inherit;" fill="rgb(0, 0, 0)" stroke="rgb(204, 204, 204)" stroke-width="1px"></line><line x1="101.81818181818183" y1="0" x2="101.81818181818183" y2="5" style="visibility: inherit;" fill="rgb(0, 0, 0)" stroke="rgb(204, 204, 204)" stroke-width="1px"></line><line x1="127.27272727272727" y1="0" x2="127.27272727272727" y2="5" style="visibility: inherit;" fill="rgb(0, 0, 0)" stroke="rgb(204, 204, 204)" stroke-width="1px"></line><line x1="152.72727272727272" y1="0" x2="152.72727272727272" y2="5" style="visibility: inherit;" fill="rgb(0, 0, 0)" stroke="rgb(204, 204, 204)" stroke-width="1px"></line><line x1="178.1818181818182" y1="0" x2="178.1818181818182" y2="5" style="visibility: inherit;" fill="rgb(0, 0, 0)" stroke="rgb(204, 204, 204)" stroke-width="1px"></line><line x1="203.63636363636365" y1="0" x2="203.63636363636365" y2="5" style="visibility: inherit;" fill="rgb(0, 0, 0)" stroke="rgb(204, 204, 204)" stroke-width="1px"></line><line x1="229.0909090909091" y1="0" x2="229.0909090909091" y2="5" style="visibility: inherit;" fill="rgb(0, 0, 0)" stroke="rgb(204, 204, 204)" stroke-width="1px"></line><line x1="254.54545454545453" y1="0" x2="254.54545454545453" y2="5" style="visibility: inherit;" fill="rgb(0, 0, 0)" stroke="rgb(204, 204, 204)" stroke-width="1px"></line><line x1="280" y1="0" x2="280" y2="5" style="visibility: inherit;" fill="rgb(0, 0, 0)" stroke="rgb(204, 204, 204)" stroke-width="1px"></line></g><g transform="translate(0, 8)"><text x="0" y="0" dx="0em" dy="0.95em" style="text-anchor: middle; visibility: hidden; font-family: Roboto, sans-serif; font-size: 12px; font-weight: 200;" fill="rgb(33, 33, 33)" stroke="none" stroke-width="1px">-2</text><text x="25.454545454545457" y="0" dx="0em" dy="0.95em" style="text-anchor: middle; visibility: inherit; font-family: Roboto, sans-serif; font-size: 12px; font-weight: 200;" fill="rgb(33, 33, 33)" stroke="none" stroke-width="1px">0</text><text x="50.909090909090914" y="0" dx="0em" dy="0.95em" style="text-anchor: middle; visibility: inherit; font-family: Roboto, sans-serif; font-size: 12px; font-weight: 200;" fill="rgb(33, 33, 33)" stroke="none" stroke-width="1px">2</text><text x="76.36363636363636" y="0" dx="0em" dy="0.95em" style="text-anchor: middle; visibility: inherit; font-family: Roboto, sans-serif; font-size: 12px; font-weight: 200;" fill="rgb(33, 33, 33)" stroke="none" stroke-width="1px">4</text><text x="101.81818181818183" y="0" dx="0em" dy="0.95em" style="text-anchor: middle; visibility: inherit; font-family: Roboto, sans-serif; font-size: 12px; font-weight: 200;" fill="rgb(33, 33, 33)" stroke="none" stroke-width="1px">6</text><text x="127.27272727272727" y="0" dx="0em" dy="0.95em" style="text-anchor: middle; visibility: inherit; font-family: Roboto, sans-serif; font-size: 12px; font-weight: 200;" fill="rgb(33, 33, 33)" stroke="none" stroke-width="1px">8</text><text x="152.72727272727272" y="0" dx="0em" dy="0.95em" style="text-anchor: middle; visibility: inherit; font-family: Roboto, sans-serif; font-size: 12px; font-weight: 200;" fill="rgb(33, 33, 33)" stroke="none" stroke-width="1px">10</text><text x="178.1818181818182" y="0" dx="0em" dy="0.95em" style="text-anchor: middle; visibility: inherit; font-family: Roboto, sans-serif; font-size: 12px; font-weight: 200;" fill="rgb(33, 33, 33)" stroke="none" stroke-width="1px">12</text><text x="203.63636363636365" y="0" dx="0em" dy="0.95em" style="text-anchor: middle; visibility: inherit; font-family: Roboto, sans-serif; font-size: 12px; font-weight: 200;" fill="rgb(33, 33, 33)" stroke="none" stroke-width="1px">14</text><text x="229.0909090909091" y="0" dx="0em" dy="0.95em" style="text-anchor: middle; visibility: inherit; font-family: Roboto, sans-serif; font-size: 12px; font-weight: 200;" fill="rgb(33, 33, 33)" stroke="none" stroke-width="1px">16</text><text x="254.54545454545453" y="0" dx="0em" dy="0.95em" style="text-anchor: middle; visibility: inherit; font-family: Roboto, sans-serif; font-size: 12px; font-weight: 200;" fill="rgb(33, 33, 33)" stroke="none" stroke-width="1px">18</text><text x="280" y="0" dx="0em" dy="0.95em" style="text-anchor: middle; visibility: hidden; font-family: Roboto, sans-serif; font-size: 12px; font-weight: 200;" fill="rgb(33, 33, 33)" stroke="none" stroke-width="1px">20</text></g><line x1="0" y1="0" x2="280" y2="0" fill="rgb(0, 0, 0)" stroke="rgb(204, 204, 204)" stroke-width="1px"></line></g></g></g></g></svg>