<svg viewBox="0 0 330 200" xmlns="http://www.w3.org/2000/svg"><g><g><g><g><g><line x1="50" y1="177" x2="45" y2="177" style="visibility: inherit;" fill="rgb(0, 0, 0)" stroke="rgb(204, 204, 204)" stroke-width="1px"></line><line x1="50" y1="160.90909090909088" x2="45" y2="160.90909090909088" style="visibility: inherit;" fill="rgb(0, 0, 0)" stroke="rgb(204, 204, 204)" stroke-width="1px"></line><line x1="50" y1="144.81818181818178" x2="45" y2="144.81818181818178" style="visibility: inherit;" fill="rgb(0, 0, 0)" stroke="rgb(204, 204, 204)" stroke-width="1px"></line><line x1="50" y1="128.7272727272727" x2="45" y2="128.7272727272727" style="visibility: inherit;" fill="rgb(0, 0, 0)" stroke="rgb(204, 204, 204)" stroke-width="1px"></line><line x1="50" y1="112.63636363636357" x2="45" y2="112.63636363636357" style="visibility: inherit;" fill="rgb(0, 0, 0)" stroke="rgb(204, 204, 204)" stroke-width="1px"></line><line x1="50" y1="96.54545454545446" x2="45" y2="96.54545454545446" style="visibility: inherit;" fill="rgb(0, 0, 0)" stroke="rgb(204, 204, 204)" stroke-width="1px"></line><line x1="50" y1="80.45454545454537" x2="45" y2="80.45454545454537" style="visibility: inherit;" fill="rgb(0, 0, 0)" stroke="rgb(204, 204, 204)" stroke-width="1px"></line><line x1="50" y1="64.36363636363643" x2="45" y2="64.36363636363643" style="visibility: inherit;" fill="rgb(0, 0, 0)" stroke="rgb(204, 204, 204)" stroke-width="1px"></line><line x1="50" y1="48.27272727272733" x2="45" y2="48.27272727272733" style="visibility: inherit;" fill="rgb(0, 0, 0)" stroke="rgb(204, 204, 204)" stroke-width="1px"></line><line x1="50" y1="32.181818181818215" x2="45" y2="32.181818181818215" style="visibility: inherit;" fill="rgb(0, 0, 0)" stroke="rgb(204, 204, 204)" stroke-width="1px"></line><line x1="50" y1="16.090909090909115" x2="45" y2="16.090909090909115" style="visibility: inherit;" fill="rgb(0, 0, 0)" stroke="rgb(204, 204, 204)" stroke-width="1px"></line><line x1="50" y1="0" x2="45" y2="0" style="visibility: inherit;" fill="rgb(0, 0, 0)" stroke="rgb(204, 204, 204)" stroke-width="1px"></line></g><g transform="translate(40, 0)"><text x="0" y="177" dx="0em" dy="0.3em" style="text-anchor: end; visibility: hidden; font-family: Roboto, sans-serif; font-size: 12px; font-weight: 200;" fill="rgb(33, 33, 33)" stroke="none" stroke-width="1px">0.87</text><text x="0" y="160.90909090909088" dx="0em" dy="0.3em" style="text-anchor: end; visibility: inherit; font-family: Roboto, sans-serif; font-size: 12px; font-weight: 200;" fill="rgb(33, 33, 33)" stroke="none" stroke-width="1px">0.88</text><text x="0" y="144.81818181818178" dx="0em" dy="0.3em" style="text-anchor: end; visibility: hidden; font-family: Roboto, sans-serif; font-size: 12px; font-weight: 200;" fill="rgb(33, 33, 33)" stroke="none" stroke-width="1px">0.89</text><text x="0" y="128.7272727272727" dx="0em" dy="0.3em" style="text-anchor: end; visibility: inherit; font-family: Roboto, sans-serif; font-size: 12px; font-weight: 200;" fill="rgb(33, 33, 33)" stroke="none" stroke-width="1px">0.9</text><text x="0" y="112.63636363636357" dx="0em" dy="0.3em" style="text-anchor: end; visibility: hidden; font-family: Roboto, sans-serif; font-size: 12px; font-weight: 200;" fill="rgb(33, 33, 33)" stroke="none" stroke-width="1px">0.91</text><text x="0" y="96.54545454545446" dx="0em" dy="0.3em" style="text-anchor: end; visibility: inherit; font-family: Roboto, sans-serif; font-size: 12px; font-weight: 200;" fill="rgb(33, 33, 33)" stroke="none" stroke-width="1px">0.92</text><text x="0" y="80.45454545454537" dx="0em" dy="0.3em" style="text-anchor: end; visibility: hidden; font-family: Roboto, sans-serif; font-size: 12px; font-weight: 200;" fill="rgb(33, 33, 33)" stroke="none" stroke-width="1px">0.93</text><text x="0" y="64.36363636363643" dx="0em" dy="0.3em" style="text-anchor: end; visibility: inherit; font-family: Roboto, sans-serif; font-size: 12px; font-weight: 200;" fill="rgb(33, 33, 33)" stroke="none" stroke-width="1px">0.94</text><text x="0" y="48.27272727272733" dx="0em" dy="0.3em" style="text-anchor: end; visibility: hidden; font-family: Roboto, sans-serif; font-size: 12px; font-weight: 200;" fill="rgb(33, 33, 33)" stroke="none" stroke-width="1px">0.95</text><text x="0" y="32.181818181818215" dx="0em" dy="0.3em" style="text-anchor: end; visibility: inherit; font-family: Roboto, sans-serif; font-size: 12px; font-weight: 200;" fill="rgb(33, 33, 33)" stroke="none" stroke-width="1px">0.96</text><text x="0" y="16.090909090909115" dx="0em" dy="0.3em" style="text-anchor: end; visibility: hidden; font-family: Roboto, sans-serif; font-size: 12px; font-weight: 200;" fill="rgb(33, 33, 33)" stroke="none" stroke-width="1px">0.97</text><text x="0" y="0" dx="0em" dy="0.3em" style="text-anchor: end; visibility: hidden; font-family: Roboto, sans-serif; font-size: 12px; font-weight: 200;" fill="rgb(33, 33, 33)" stroke="none" stroke-width="1px">0.98</text></g><line x1="50" y1="0" x2="50" y2="177" fill="rgb(0, 0, 0)" stroke="rgb(204, 204, 204)" stroke-width="1px"></line></g></g><g transform="translate(50, 0)" clip-path="url(#clip_0)"><clipPath id="clip_0"><rect width="280" height="177"></rect></clipPath><g><g><g><line x1="0" y1="0" x2="0" y2="177" fill="rgb(0, 0, 0)" stroke="rgb(66, 66, 66)" stroke-width="1px" opacity="0.25"></line><line x1="25.454545454545457" y1="0" x2="25.454545454545457" y2="177" fill="rgb(0, 0, 0)" stroke="rgb(66, 66, 66)" stroke-width="1px" opacity="0.25"></line><line x1="50.909090909090914" y1="0" x2="50.909090909090914" y2="177" fill="rgb(0, 0, 0)" stroke="rgb(66, 66, 66)" stroke-width="1px" opacity="0.25"></line><line x1="76.36363636363636" y1="0" x2="76.36363636363636" y2="177" fill="rgb(0, 0, 0)" stroke="rgb(66, 66, 66)" stroke-width="1px" opacity="0.25"></line><line x1="101.81818181818183" y1="0" x2="101.81818181818183" y2="177" fill="rgb(0, 0, 0)" stroke="rgb(66, 66, 66)" stroke-width="1px" opacity="0.25"></line><line x1="127.27272727272727" y1="0" x2="127.27272727272727" y2="177" fill="rgb(0, 0, 0)" stroke="rgb(66, 66, 66)" stroke-width="1px" opacity="0.25"></line><line x1="152.72727272727272" y1="0" x2="152.72727272727272" y2="177" fill="rgb(0, 0, 0)" stroke="rgb(66, 66, 66)" stroke-width="1px" opacity="0.25"></line><line x1="178.1818181818182" y1="0" x2="178.1818181818182" y2="177" fill="rgb(0, 0, 0)" stroke="rgb(66, 66, 66)" stroke-width="1px" opacity="0.25"></line><line x1="203.63636363636365" y1="0" x2="203.63636363636365" y2="177" fill="rgb(0, 0, 0)" stroke="rgb(66, 66, 66)" stroke-width="1px" opacity="0.25"></line><line x1="229.0909090909091" y1="0" x2="229.0909090909091" y2="177" fill="rgb(0, 0, 0)" stroke="rgb(66, 66, 66)" stroke-width="1px" opacity="0.25"></line><line x1="254.54545454545453" y1="0" x2="254.54545454545453" y2="177" fill="rgb(0, 0, 0)" stroke="rgb(66, 66, 66)" stroke-width="1px" opacity="0.25"></line><line x1="280" y1="0" x2="280" y2="177" fill="rgb(0, 0, 0)" stroke="rgb(66, 66, 66)" stroke-width="1px" opacity="0.25"></line></g><g><line x1="0" y1="177" x2="280" y2="177" fill="rgb(0, 0, 0)" stroke="rgb(66, 66, 66)" stroke-width="1px" opacity="0.25"></line><line x1="0" y1="160.90909090909088" x2="280" y2="160.90909090909088" fill="rgb(0, 0, 0)" stroke="rgb(66, 66, 66)" stroke-width="1px" opacity="0.25"></line><line x1="0" y1="144.81818181818178" x2="280" y2="144.81818181818178" fill="rgb(0, 0, 0)" stroke="rgb(66, 66, 66)" stroke-width="1px" opacity="0.25"></line><line x1="0" y1="128.7272727272727" x2="280" y2="128.7272727272727" fill="rgb(0, 0, 0)" stroke="rgb(66, 66, 66)" stroke-width="1px" opacity="0.25"></line><line x1="0" y1="112.63636363636357" x2="280" y2="112.63636363636357" fill="rgb(0, 0, 0)" stroke="rgb(66, 66, 66)" stroke-width="1px" opacity="0.25"></line><line x1="0" y1="96.54545454545446" x2="280" y2="96.54545454545446" fill="rgb(0, 0, 0)" stroke="rgb(66, 66, 66)" stroke-width="1px" opacity="0.25"></line><line x1="0" y1="80.45454545454537" x2="280" y2="80.45454545454537" fill="rgb(0, 0, 0)" stroke="rgb(66, 66, 66)" stroke-width="1px" opacity="0.25"></line><line x1="0" y1="64.36363636363643" x2="280" y2="64.36363636363643" fill="rgb(0, 0, 0)" stroke="rgb(66, 66, 66)" stroke-width="1px" opacity="0.25"></line><line x1="0" y1="48.27272727272733" x2="280" y2="48.27272727272733" fill="rgb(0, 0, 0)" stroke="rgb(66, 66, 66)" stroke-width="1px" opacity="0.25"></line><line x1="0" y1="32.181818181818215" x2="280" y2="32.181818181818215" fill="rgb(0, 0, 0)" stroke="rgb(66, 66, 66)" stroke-width="1px" opacity="0.25"></line><line x1="0" y1="16.090909090909115" x2="280" y2="16.090909090909115" fill="rgb(0, 0, 0)" stroke="rgb(66, 66, 66)" stroke-width="1px" opacity="0.25"></line><line x1="0" y1="0" x2="280" y2="0" fill="rgb(0, 0, 0)" stroke="rgb(66, 66, 66)" stroke-width="1px" opacity="0.25"></line></g></g></g><g><g><line x1="0" y1="1576.909090909091" x2="280" y2="1576.909090909091" fill="rgb(0, 0, 0)" stroke="rgb(153, 153, 153)" stroke-width="1.5px"></line></g></g><g><g><line x1="25.454545454545457" y1="0" x2="25.454545454545457" y2="177" fill="rgb(0, 0, 0)" stroke="rgb(153, 153, 153)" stroke-width="1.5px"></line></g></g><g><g><g><g><g><path stroke="rgb(238, 51, 119)" stroke-width="2px" d="M25.454545454545457,142.67271397330524L38.18181818181818,130.6045676415615L50.909090909090914,121.16346000563438L63.63636363636363,114.1636081536345L76.36363636363636,113.03594670341741L89.0909090909091,111.40550563153758L101.81818181818183,110.8083902958776L114.54545454545455,109.0426578716543L127.27272727272727,106.3769220920894L140,106.8453651423089L152.72727272727272,106.37094590440405L165.45454545454547,104.68983502184213L178.1818181818182,106.69105211410458L190.9090909090909,103.38113995282275L203.63636363636365,102.2554151236656L216.36363636363635,100.93650937020048L229.0909090909091,102.18393669086798L241.8181818181818,101.10845343046624L254.54545454545453,101.21417217163281L267.2727272727273,102.35036476495438" style="fill: none;" fill="none"></path></g><g><path stroke="rgb(51, 187, 238)" stroke-width="2px" d="M25.454545454545457,206.9469974040985L38.18181818181818,151.85795886137268L50.909090909090914,130.05297519766984L63.63636363636363,117.31092058464814L76.36363636363636,109.36417706439447L89.0909090909091,103.66067250163296L101.81818181818183,100.11950250380227L114.54545454545455,96.85917847560458L127.27272727272727,94.37245922536549L140,92.17707538406523L152.72727272727272,90.86837178773959L165.45454545454547,89.22612641209568L178.1818181818182,88.2550167767849L190.9090909090909,87.55387381920397L203.63636363636365,86.68040475666972L216.36363636363635,85.93006131067096L229.0909090909091,85.21773034490937L241.8181818181818,84.69502705355342L254.54545454545453,84.36950721266415L267.2727272727273,83.90008922466147" style="fill: none;" fill="none"></path></g><g><path stroke="rgb(187, 187, 187)" stroke-width="2px" d="M25.454545454545457,132.75003452734512L38.18181818181818,112.80401883342047L50.909090909090914,103.14054599321389L63.63636363636363,86.18297557963115L76.36363636363636,72.41557848782179L89.0909090909091,62.398346658525966L101.81818181818183,55.261012378175714L114.54545454545455,48.38103872842185L127.27272727272727,42.70229363553655L140,38.25264366499241L152.72727272727272,34.738853104257394L165.45454545454547,31.348652449760575L178.1818181818182,29.21185602931482L190.9090909090909,26.857998150724026L203.63636363636365,26.198110764779283L216.36363636363635,26.87540592445621L229.0909090909091,25.565015815814494L241.8181818181818,24.671647873264895L254.54545454545453,22.63376923570856L267.2727272727273,20.767469921361062" style="fill: none;" fill="none"></path></g><g><path stroke="rgb(0, 153, 136)" stroke-width="2px" d="M38.18181818181818,191.07580786943436L50.909090909090914,136.56719303352278L63.63636363636363,104.85067450012116L76.36363636363636,82.45671968685409L89.0909090909091,66.4636220396519L101.81818181818183,53.668045082566984L114.54545454545455,43.70232893651945L127.27272727272727,36.13340838877314L140,29.686536222597386L152.72727272727272,23.761957966866078L165.45454545454547,18.990641790219385L178.1818181818182,15.02457701138165L190.9090909090909,11.515024402734579L203.63636363636365,8.385531478840806L216.36363636363635,5.543043970650548L229.0909090909091,3.0989393803574896L241.8181818181818,0.941357030392612L254.54545454545453,-1.0086512742761478" style="fill: none;" fill="none"></path></g><g><path stroke="rgb(204, 51, 17)" stroke-width="2px" d="M25.454545454545457,189.06816263632342L38.18181818181818,174.15055123784325L50.909090909090914,161.78479739420942L63.63636363636363,153.86441369091784L76.36363636363636,148.31237955217028L89.0909090909091,144.0332468251163L101.81818181818183,138.61742208144713L114.54545454545455,135.57571156246559L127.27272727272727,132.26664043617453L140,129.65508807398612L152.72727272727272,128.20599375958145L165.45454545454547,126.47984063758193L178.1818181818182,124.80208688409337L190.9090909090909,123.36740344453484L203.63636363636365,122.39999784667204L216.36363636363635,120.42489267857496L229.0909090909091,119.24018624536916L241.8181818181818,117.99307313506812L254.54545454545453,116.81576201241958L267.2727272727273,116.002152380347L25.454545454545457,145.01466302429935L38.18181818181818,152.98163148445173L50.909090909090914,151.96897027955984L63.63636363636363,149.21591600950575L76.36363636363636,145.74046733269896L89.0909090909091,141.61701342639327L101.81818181818183,138.71384697248465L114.54545454545455,134.8264951849126L127.27272727272727,132.06498730945256L140,129.54988670040626L152.72727272727272,127.0754036290237L165.45454545454547,124.62525262195251L178.1818181818182,123.3696920572056L190.9090909090909,121.54362947629922L203.63636363636365,120.87709014123726L216.36363636363635,120.2626366408685L229.0909090909091,117.855776984926L241.8181818181818,116.51892615351807L254.54545454545453,115.93134556278062L267.2727272727273,115.04243408361134L25.454545454545457,146.04728499965378L38.18181818181818,153.27926659015318L50.909090909090914,153.43481549446423L63.63636363636363,149.8809062784016L76.36363636363636,144.5303436360222L89.0909090909091,140.24727980118868L101.81818181818183,136.9265484711319L114.54545454545455,133.8613834234581L127.27272727272727,131.16408804964408L140,128.25845467122122L152.72727272727272,125.54961334670942L165.45454545454547,123.70977864755783L178.1818181818182,122.2840446076744L190.9090909090909,121.53586913597219L203.63636363636365,120.87243394849915L216.36363636363635,118.75801850924648L229.0909090909091,117.91842905459988L241.8181818181818,117.20014547735991L254.54545454545453,116.01828230171634L267.2727272727273,115.73822420523464L25.454545454545457,144.5338364528237L38.18181818181818,153.12212885159153L50.909090909090914,152.696904774209L63.63636363636363,149.3308565309211L76.36363636363636,145.38034335372794L89.0909090909091,141.9373091977169L101.81818181818183,139.44239053148934L114.54545454545455,136.01451673681532L127.27272727272727,133.09963447848506L140,129.9561456533967L152.72727272727272,127.7482191379486L165.45454545454547,125.56530524715393L178.1818181818182,123.39736056743465L190.9090909090909,122.5256919322244L203.63636363636365,120.28633642432975L216.36363636363635,119.58635119666663L229.0909090909091,118.30816371482612L241.8181818181818,116.79035819642215L254.54545454545453,115.55784166498462L267.2727272727273,115.03290001429126L25.454545454545457,143.89611203380446L38.18181818181818,151.7740329027113L50.909090909090914,151.56625234820245L63.63636363636363,148.86703334348624L76.36363636363636,145.53114761388818L89.0909090909091,142.56415487866064L101.81818181818183,139.06756654703887L114.54545454545455,135.89688729837107L127.27272727272727,132.92175349947544L140,129.5275838455959L152.72727272727272,126.84745397619466L165.45454545454547,124.70301292970649L178.1818181818182,123.95271142666104L190.9090909090909,122.10800941846048L203.63636363636365,120.35752177274968L216.36363636363635,119.19996423309736L229.0909090909091,118.29089980485355L241.8181818181818,117.85272610013351L254.54545454545453,117.26798865690638L267.2727272727273,116.70261628651765" style="fill: none;" fill="none"></path></g><g><path stroke="rgb(0, 119, 187)" stroke-width="2px" d="M38.18181818181818,202.06383574279874L50.909090909090914,172.2791745140735L63.63636363636363,154.67464904319797L76.36363636363636,142.99409043651298L89.0909090909091,134.49507277883282L101.81818181818183,128.20979250796708L114.54545454545455,123.95912789951468L127.27272727272727,119.9137071665131L140,116.937106773806L152.72727272727272,114.02624090118279L165.45454545454547,111.91620787399225L178.1818181818182,109.82961454343017L190.9090909090909,108.53171895948117L203.63636363636365,106.94274133548066L216.36363636363635,105.34598497118971L229.0909090909091,104.07830329822805L241.8181818181818,103.1986234622076L254.54545454545453,102.19405941412535L267.2727272727273,101.17417785418823L25.454545454545457,170.70826158676238L38.18181818181818,167.02694006692374L50.909090909090914,158.51285969313759L63.63636363636363,149.35192243665196L76.36363636363636,140.9232406513082L89.0909090909091,134.01856225411154L101.81818181818183,128.2309167116959L114.54545454545455,123.69753739216002L127.27272727272727,119.98822605202722L140,116.66605139866506L152.72727272727272,114.0291189142462L165.45454545454547,111.66031157146864L178.1818181818182,109.78606686034581L190.9090909090909,108.25628413858114L203.63636363636365,106.58752149136565L216.36363636363635,105.22867571323714L229.0909090909091,104.07964228065575L241.8181818181818,102.93726181949317L254.54545454545453,101.72740153542559L267.2727272727273,101.0849264509028L25.454545454545457,170.06913620950377L38.18181818181818,166.9176604136221L50.909090909090914,158.57848632110213L63.63636363636363,149.5701167402612L76.36363636363636,140.8992301433253L89.0909090909091,134.23066711112543L101.81818181818183,128.50124384930783L114.54545454545455,124.06237361078792L127.27272727272727,120.2190219020861L140,117.24555893167442L152.72727272727272,114.48408873603881L165.45454545454547,111.96904863713753L178.1818181818182,110.245456309632L190.9090909090909,108.66304503606906L203.63636363636365,107.05803907892751L216.36363636363635,105.47523129571405L229.0909090909091,104.19182065317725L241.8181818181818,103.19531324727224L254.54545454545453,102.1206245311019L267.2727272727273,101.26128139694737L25.454545454545457,170.41334125811724L38.18181818181818,167.50559551692197L50.909090909090914,159.05044345364664L63.63636363636363,149.80560492134236L76.36363636363636,141.8867882821873L89.0909090909091,135.1449968515365L101.81818181818183,129.27630271415194L114.54545454545455,124.3962817457066L127.27272727272727,120.55049396717644L140,117.58746210705412L152.72727272727272,114.95148500945491L165.45454545454547,112.5593885056591L178.1818181818182,110.80229738298644L190.9090909090909,109.0090424322972L203.63636363636365,107.13451033257793L216.36363636363635,105.86677113644475L229.0909090909091,104.5578333779868L241.8181818181818,103.41492088215823L254.54545454545453,102.55036010056746L267.2727272727273,101.66214267492846L25.454545454545457,170.70154412491004L38.18181818181818,167.11829188028884L50.909090909090914,158.269767030889L63.63636363636363,149.2895513313986L76.36363636363636,140.8739491989274L89.0909090909091,133.97710640858875L101.81818181818183,128.4206173961509L114.54545454545455,124.0616454752825L127.27272727272727,119.98023124823774L140,117.03077457123882L152.72727272727272,114.24795316756465L165.45454545454547,111.83926004827438L178.1818181818182,109.71466111555118L190.9090909090909,108.07042079923293L203.63636363636365,106.65477843682055L216.36363636363635,105.4716670467641L229.0909090909091,104.47572197641061L241.8181818181818,103.22259574119411L254.54545454545453,102.23232786375047L267.2727272727273,101.30444116467521" style="fill: none;" fill="none"></path></g></g></g></g><g opacity="0.2"><g><g><g><path stroke="rgb(238, 51, 119)" stroke-width="2px" d="M25.454545454545457,142.67271397330543L38.18181818181818,123.36367984251541L50.909090909090914,112.09999667514452L63.63636363636363,105.93178237568246L76.36363636363636,111.56367191401394L89.0909090909091,109.15001867034216L101.81818181818183,109.95450581203805L114.54545454545455,106.4682030461051L127.27272727272727,102.44547960974951L140,107.54094847765835L152.72727272727272,105.66361999511717L165.45454545454547,102.17731722918423L178.1818181818182,109.68634343147276L190.9090909090909,98.42275617339392L203.63636363636365,100.56815112720834L216.36363636363635,98.95908093452452L229.0909090909091,104.05454980243334L241.8181818181818,99.49550160494717L254.54545454545453,101.37273417819628L267.2727272727273,104.05454980243334" style="fill: none;" fill="none"></path></g><g><path stroke="rgb(51, 187, 238)" stroke-width="2px" d="M25.454545454545457,206.9469974040985L38.18181818181818,118.80453573573718L50.909090909090914,109.12019088051535L63.63636363636363,102.32626435973425L76.36363636363636,98.98890872435135L89.0909090909091,95.77067242969164L101.81818181818183,95.05557274818419L114.54545454545455,92.10559474338183L127.27272727272727,90.70503135160963L140,88.91718623854895L152.72727272727272,88.91718623854895L165.45454545454547,86.77169537544249L178.1818181818182,86.80152316526932L190.9090909090909,86.50353299487719L203.63636363636365,85.37122789296234L216.36363636363635,84.80507534200494L229.0909090909091,84.14953533085907L241.8181818181818,83.91110483082855L254.54545454545453,83.88127704100174L267.2727272727273,83.1960051493211" style="fill: none;" fill="none"></path></g><g><path stroke="rgb(187, 187, 187)" stroke-width="2px" d="M25.454545454545457,132.75003452734512L38.18181818181818,100.8364094170657L50.909090909090914,93.86361206661569L63.63636363636363,66.24087277325714L76.36363636363636,54.440864844755666L89.0909090909091,48.54090883515096L101.81818181818183,45.054510159925954L114.54545454545455,38.3499710993333L127.27272727272727,34.32724766297771L140,31.64543203874065L152.72727272727272,29.500037084926237L165.45454545454547,26.28180079026653L178.1818181818182,26.013638409701237L190.9090909090909,23.331822785464176L203.63636363636365,25.209055358713293L216.36363636363635,27.890870982950354L229.0909090909091,23.59998516602947L241.8181818181818,23.331822785464176L254.54545454545453,19.57726172967388L267.2727272727273,17.968191536990055" style="fill: none;" fill="none"></path></g><g><path stroke="rgb(0, 153, 136)" stroke-width="2px" d="M25.454545454545457,326.0792858817361L38.18181818181818,110.07372106205331L50.909090909090914,84.23892279104751L63.63636363636363,67.5520487048409L76.36363636363636,53.219172282652394L89.0909090909091,44.33941047841849L101.81818181818183,35.370165304704116L114.54545454545455,29.172219124707276L127.27272727272727,24.970720767974832L140,20.113682400096526L152.72727272727272,14.928826071999254L165.45454545454547,11.85963281718164L178.1818181818182,9.088429732756154L190.9090909090909,6.257571068677001L203.63636363636365,3.6949706944551997L216.36363636363635,1.2813174507834337L229.0909090909091,-0.5661832419308892" style="fill: none;" fill="none"></path></g><g><path stroke="rgb(204, 51, 17)" stroke-width="2px" d="M25.454545454545457,189.06816263632342L38.18181818181818,165.19998439875513L50.909090909090914,149.91367370432073L63.63636363636363,144.5500424558466L76.36363636363636,141.0636437806216L89.0909090909091,138.11366577581924L101.81818181818183,130.87270604480395L114.54545454545455,131.14086842536926L127.27272727272727,127.386403278871L140,125.77723717689514L152.72727272727272,126.04549546675247L165.45454545454547,123.900004603646L178.1818181818182,122.29093441096218L190.9090909090909,121.21818897940894L203.63636363636365,120.95002659884365L216.36363636363635,117.46362792361865L229.0909090909091,117.46362792361865L241.8181818181818,116.12272011150012L254.54545454545453,115.0499746799469L267.2727272727273,114.78181229938158L25.454545454545457,188.53183787519282L38.18181818181818,164.93182201818985L50.909090909090914,150.4499984654513L63.63636363636363,145.08636721697718L76.36363636363636,140.52731901949102L89.0909090909091,135.43185015158218L101.81818181818183,134.35910472002894L114.54545454545455,128.99547347155482L127.27272727272727,127.92272804000159L140,125.77723717689514L152.72727272727272,123.36367984251541L165.45454545454547,120.95002659884365L178.1818181818182,121.48635135997424L190.9090909090909,118.80453573573718L203.63636363636365,119.8772811672904L216.36363636363635,119.34095640615982L229.0909090909091,114.245487538251L241.8181818181818,114.51364991881628L254.54545454545453,115.0499746799469L267.2727272727273,113.70906686782835L25.454545454545457,192.5545613115484L38.18181818181818,164.12723896720192L50.909090909090914,153.66813885081896L63.63636363636363,144.5500424558466L76.36363636363636,136.50449967384338L89.0909090909091,133.8226840496063L101.81818181818183,131.9454514763572L114.54545454545455,129.26363585212013L127.27272727272727,127.11814498901367L140,123.900004603646L152.72727272727272,121.48635135997424L165.45454545454547,120.95002659884365L178.1818181818182,120.1454435478557L190.9090909090909,120.41360592842102L203.63636363636365,119.8772811672904L216.36363636363635,115.58639535036953L229.0909090909091,116.6590448726307L241.8181818181818,116.12272011150012L254.54545454545453,114.245487538251L267.2727272727273,115.31813706051217L25.454545454545457,187.7272548242049L38.18181818181818,166.0045674497431L50.909090909090914,152.05906865813515L63.63636363636363,144.28178416598925L76.36363636363636,139.45457358793777L89.0909090909091,136.7727579637007L101.81818181818183,135.70001253214747L114.54545454545455,130.87270604480395L127.27272727272727,128.72731109098953L140,125.24091241576453L152.72727272727272,124.43632936477661L165.45454545454547,122.29093441096218L178.1818181818182,120.1454435478557L190.9090909090909,121.21818897940894L203.63636363636365,116.92730316248806L216.36363636363635,118.53637335517188L229.0909090909091,116.39088249206543L241.8181818181818,114.51364991881628L254.54545454545453,113.70906686782835L267.2727272727273,114.245487538251L25.454545454545457,187.1909300630743L38.18181818181818,163.59091420607132L50.909090909090914,151.25458151643926L63.63636363636363,144.8182048364119L76.36363636363636,140.52731901949102L89.0909090909091,138.11366577581924L101.81818181818183,133.8226840496063L114.54545454545455,131.14086842536926L127.27272727272727,128.4590528011322L140,124.43632936477661L152.72727272727272,122.82725917209277L165.45454545454547,121.48635135997424L178.1818181818182,122.82725917209277L190.9090909090909,119.34095640615982L203.63636363636365,117.73179030418396L216.36363636363635,117.46362792361865L229.0909090909091,116.92730316248806L241.8181818181818,117.19546554305334L254.54545454545453,116.39088249206543L267.2727272727273,115.85455773093481" style="fill: none;" fill="none"></path></g><g><path stroke="rgb(0, 119, 187)" stroke-width="2px" d="M25.454545454545457,268.5691970911893L38.18181818181818,162.16061893376437L50.909090909090914,143.68589973449707L63.63636363636363,133.9717270894484L76.36363636363636,127.74395311962472L89.0909090909091,122.73787171190435L101.81818181818183,119.22174115614456L114.54545454545455,117.76161809401077L127.27272727272727,113.94749736785887L140,112.51720209555191L152.72727272727272,109.68634343147276L165.45454545454547,108.76264103976162L178.1818181818182,106.70653763684356L190.9090909090909,106.58741829612036L203.63636363636365,104.56114268302916L216.36363636363635,102.95197658105329L229.0909090909091,102.17731722918423L241.8181818181818,101.8793270587921L254.54545454545453,100.6873663772236L267.2727272727273,99.64444873549719L25.454545454545457,275.00557377121663L38.18181818181818,161.5050789226185L50.909090909090914,145.74190722812304L63.63636363636363,135.61062507195905L76.36363636363636,128.2802778807553L89.0909090909091,123.66157410361548L101.81818181818183,119.54946320707145L114.54545454545455,116.89747537266122L127.27272727272727,114.42426245862785L140,111.68279125473715L152.72727272727272,110.07372106205331L165.45454545454547,108.10710102861577L178.1818181818182,106.97470001740888L190.9090909090909,105.9616101655093L203.63636363636365,104.08437759226018L216.36363636363635,103.1904070810838L229.0909090909091,102.35609214956108L241.8181818181818,101.22369113835418L254.54545454545453,99.9126111160625L267.2727272727273,100.12121382626617L25.454545454545457,273.54545070908284L38.18181818181818,162.19044672359118L50.909090909090914,146.069725188342L63.63636363636363,136.05756237290123L76.36363636363636,127.89290025017478L89.0909090909091,124.22782256386496L101.81818181818183,119.90710895711723L114.54545454545455,117.40406825325705L127.27272727272727,114.45399433916265L140,112.78536447611721L152.72727272727272,110.34188344261862L165.45454545454547,108.19648848880419L178.1818181818182,107.66006781838156L190.9090909090909,106.28942812572824L203.63636363636365,104.6505301432176L216.36363636363635,103.10101962089537L229.0909090909091,102.26670468937265L241.8181818181818,101.70055213841522L254.54545454545453,100.50859145684674L267.2727272727273,99.97226669571616L25.454545454545457,274.1414310498671L38.18181818181818,163.14397690512916L50.909090909090914,146.36771535873413L63.63636363636363,135.93834712288597L76.36363636363636,130.0085633234544L89.0909090909091,125.03230970556085L101.81818181818183,120.47326150807464L114.54545454545455,117.07625029303809L127.27272727272727,114.78181229938158L140,113.14291431687094L152.72727272727272,110.99751936305651L165.45454545454547,108.9712437499653L178.1818181818182,108.16666069897735L190.9090909090909,106.31916000626303L203.63636363636365,104.32271218299864L216.36363636363635,103.96516234224492L229.0909090909091,102.59442674029955L241.8181818181818,101.70055213841522L254.54545454545453,101.25351892818102L267.2727272727273,100.32981653646988L25.454545454545457,274.26064629988235L38.18181818181818,161.74341351335698L50.909090909090914,144.99697975678876L63.63636363636363,135.81922778216273L76.36363636363636,128.25054600022057L89.0909090909091,123.63184222308071L101.81818181818183,120.08588387749411L114.54545454545455,117.52318759398025L127.27272727272727,113.85810990767044L140,112.60658955574034L152.72727272727272,110.07372106205331L165.45454545454547,108.22622036933898L178.1818181818182,106.52776271646673L190.9090909090909,105.60406032475555L203.63636363636365,104.53131489320234L216.36363636363635,103.69699996167961L229.0909090909091,102.98180437088011L241.8181818181818,101.34290638836944L254.54545454545453,100.7469260475852L267.2727272727273,99.9126111160625" style="fill: none;" fill="none"></path></g></g></g></g></g></g><g transform="translate(50, 177)" clip-path="url(#clip_1)"><clipPath id="clip_1"><rect width="280" height="23"></rect></clipPath><g><g><line x1="0" y1="0" x2="0" y2="5" style="visibility: inherit;" fill="rgb(0, 0, 0)" stroke="rgb(204, 204, 204)" stroke-width="1px"></line><line x1="25.454545454545457" y1="0" x2="25.454545454545457" y2="5" style="visibility: inherit;" fill="rgb(0, 0, 0)" stroke="rgb(204, 204, 204)" stroke-width="1px"></line><line x1="50.909090909090914" y1="0" x2="50.909090909090914" y2="5" style="visibility: inherit;" fill="rgb(0, 0, 0)" stroke="rgb(204, 204, 204)" stroke-width="1px"></line><line x1="76.36363636363636" y1="0" x2="76.36363636363636" y2="5" style="visibility: inherit;" fill="rgb(0, 0, 0)" stroke="rgb(204, 204, 204)" stroke-width="1px"></line><line x1="101.81818181818183" y1="0" x2="101.81818181818183" y2="5" style="visibility: inherit;" fill="rgb(0, 0, 0)" stroke="rgb(204, 204, 204)" stroke-width="1px"></line><line x1="127.27272727272727" y1="0" x2="127.27272727272727" y2="5" style="visibility: inherit;" fill="rgb(0, 0, 0)" stroke="rgb(204, 204, 204)" stroke-width="1px"></line><line x1="152.72727272727272" y1="0" x2="152.72727272727272" y2="5" style="visibility: inherit;" fill="rgb(0, 0, 0)" stroke="rgb(204, 204, 204)" stroke-width="1px"></line><line x1="178.1818181818182" y1="0" x2="178.1818181818182" y2="5" style="visibility: inherit;" fill="rgb(0, 0, 0)" stroke="rgb(204, 204, 204)" stroke-width="1px"></line><line x1="203.63636363636365" y1="0" x2="203.63636363636365" y2="5" style="visibility: inherit;" fill="rgb(0, 0, 0)" stroke="rgb(204, 204, 204)" stroke-width="1px"></line><line x1="229.0909090909091" y1="0" x2="229.0909090909091" y2="5" style="visibility: inherit;" fill="rgb(0, 0, 0)" stroke="rgb(204, 204, 204)" stroke-width="1px"></line><line x1="254.54545454545453" y1="0" x2="254.54545454545453" y2="5" style="visibility: inherit;" fill="rgb(0, 0, 0)" stroke="rgb(204, 204, 204)" stroke-width="1px"></line><line x1="280" y1="0" x2="280" y2="5" style="visibility: inherit;" fill="rgb(0, 0, 0)" stroke="rgb(204, 204, 204)" stroke-width="1px"></line></g><g transform="translate(0, 8)"><text x="0" y="0" dx="0em" dy="0.95em" style="text-anchor: middle; visibility: hidden; font-family: Roboto, sans-serif; font-size: 12px; font-weight: 200;" fill="rgb(33, 33, 33)" stroke="none" stroke-width="1px">-2</text><text x="25.454545454545457" y="0" dx="0em" dy="0.95em" style="text-anchor: middle; visibility: inherit; font-family: Roboto, sans-serif; font-size: 12px; font-weight: 200;" fill="rgb(33, 33, 33)" stroke="none" stroke-width="1px">0</text><text x="50.909090909090914" y="0" dx="0em" dy="0.95em" style="text-anchor: middle; visibility: inherit; font-family: Roboto, sans-serif; font-size: 12px; font-weight: 200;" fill="rgb(33, 33, 33)" stroke="none" stroke-width="1px">2</text><text x="76.36363636363636" y="0" dx="0em" dy="0.95em" style="text-anchor: middle; visibility: inherit; font-family: Roboto, sans-serif; font-size: 12px; font-weight: 200;" fill="rgb(33, 33, 33)" stroke="none" stroke-width="1px">4</text><text x="101.81818181818183" y="0" dx="0em" dy="0.95em" style="text-anchor: middle; visibility: inherit; font-family: Roboto, sans-serif; font-size: 12px; font-weight: 200;" fill="rgb(33, 33, 33)" stroke="none" stroke-width="1px">6</text><text x="127.27272727272727" y="0" dx="0em" dy="0.95em" style="text-anchor: middle; visibility: inherit; font-family: Roboto, sans-serif; font-size: 12px; font-weight: 200;" fill="rgb(33, 33, 33)" stroke="none" stroke-width="1px">8</text><text x="152.72727272727272" y="0" dx="0em" dy="0.95em" style="text-anchor: middle; visibility: inherit; font-family: Roboto, sans-serif; font-size: 12px; font-weight: 200;" fill="rgb(33, 33, 33)" stroke="none" stroke-width="1px">10</text><text x="178.1818181818182" y="0" dx="0em" dy="0.95em" style="text-anchor: middle; visibility: inherit; font-family: Roboto, sans-serif; font-size: 12px; font-weight: 200;" fill="rgb(33, 33, 33)" stroke="none" stroke-width="1px">12</text><text x="203.63636363636365" y="0" dx="0em" dy="0.95em" style="text-anchor: middle; visibility: inherit; font-family: Roboto, sans-serif; font-size: 12px; font-weight: 200;" fill="rgb(33, 33, 33)" stroke="none" stroke-width="1px">14</text><text x="229.0909090909091" y="0" dx="0em" dy="0.95em" style="text-anchor: middle; visibility: inherit; font-family: Roboto, sans-serif; font-size: 12px; font-weight: 200;" fill="rgb(33, 33, 33)" stroke="none" stroke-width="1px">16</text><text x="254.54545454545453" y="0" dx="0em" dy="0.95em" style="text-anchor: middle; visibility: inherit; font-family: Roboto, sans-serif; font-size: 12px; font-weight: 200;" fill="rgb(33, 33, 33)" stroke="none" stroke-width="1px">18</text><text x="280" y="0" dx="0em" dy="0.95em" style="text-anchor: middle; visibility: hidden; font-family: Roboto, sans-serif; font-size: 12px; font-weight: 200;" fill="rgb(33, 33, 33)" stroke="none" stroke-width="1px">20</text></g><line x1="0" y1="0" x2="280" y2="0" fill="rgb(0, 0, 0)" stroke="rgb(204, 204, 204)" stroke-width="1px"></line></g></g></g></g></svg>